<?xml version="1.0" encoding="UTF-8"?>
<svg width="1200pt" height="1200pt" version="1.1" viewBox="0 0 1200 1200" xmlns="http://www.w3.org/2000/svg">
 <path d="m323.53 256.82 89.484-36.562c21.703-8.4844 21.703-40.5 0-48.938l-89.484-36.562c-6.8438-2.7656-14.344-2.7656-21.141 0l-89.484 36.562c-21.656 8.4844-21.75 40.5 0 48.938l89.484 36.562c6.7969 2.8125 14.344 2.8125 21.141 0zm-12.281-21.703-89.484-36.562c-2.4844-0.84375-2.4844-4.7344 0-5.5781l89.484-36.562c1.0781-0.46875 2.2969-0.46875 3.4219 0l89.484 36.562c2.4844 0.84375 2.4844 4.7344 0 5.5781l-89.484 36.562c-1.0781 0.46875-2.2969 0.46875-3.4219 0z"/>
 <path d="m146.9 292.4-58.078-23.625c-14.438-5.4375-23.016 15.516-8.8125 21.703-0.23438-0.32812 65.016 27.234 62.484 24.469 12.562 0.09375 16.312-17.812 4.4062-22.594z"/>
 <path d="m79.969 525.05 58.547 23.766c1.4531 0.5625 2.9531 0.84375 4.4062 0.84375 12.562 0.09375 16.312-17.812 4.4062-22.594l-58.547-23.766c-14.438-5.4375-23.016 15.516-8.8125 21.703z"/>
 <path d="m79.969 759.61 58.547 23.766c1.4531 0.5625 2.9531 0.84375 4.4062 0.84375 12.562 0.09375 16.312-17.812 4.4062-22.594l-58.547-23.766c-14.438-5.4375-23.016 15.516-8.8125 21.703z"/>
 <path d="m786.98 220.26c5.0156 1.3125 97.734 42.047 100.03 38.672 2.0625 3.4688 95.297-37.5 100.03-38.672 21.656-8.4375 21.75-40.5 0-48.938l-89.484-36.562c-6.8438-2.7656-14.344-2.7656-21.141 0l-89.484 36.562c-21.656 8.4844-21.75 40.5 0 48.938zm98.344-63.844c1.0781-0.46875 2.2969-0.46875 3.4219 0l89.484 36.562c2.4844 0.84375 2.4844 4.7344 0 5.5781l-89.484 36.562c-1.0781 0.46875-2.2969 0.46875-3.4219 0l-89.484-36.562c-2.4844-0.84375-2.4844-4.7344 0-5.5781z"/>
 <path d="m1057.5 314.95c-2.4375 2.7656 62.391-24.75 62.484-24.469 14.156-6.1406 5.6719-27.188-8.8125-21.703l-58.078 23.625c-11.859 4.7812-8.2031 22.688 4.4062 22.594z"/>
 <path d="m1111.2 503.34-58.547 23.766c-11.859 4.7812-8.2031 22.688 4.4062 22.594 1.4531 0 2.9531-0.28125 4.4062-0.84375l58.547-23.766c14.156-6.1406 5.6719-27.188-8.8125-21.703z"/>
 <path d="m1111.2 737.9-58.547 23.766c-6 2.4375-8.9062 9.2812-6.4688 15.281 2.4375 6.0469 9.4219 8.8594 15.281 6.4688l58.547-23.766c14.156-6.1406 5.6719-27.188-8.8125-21.703z"/>
 <path d="m1164.8 317.63v-110.95c0-5.8594-1.8281-11.484-5.2969-16.266-0.09375-0.23438-0.28125-0.46875-0.46875-0.65625-2.9531-3.8906-6.8906-6.9844-11.625-8.9531l-246.19-100.64c-9.2344-3.75-19.359-3.75-28.5 0l-246.19 100.64c-4.7344 1.9219-8.8594 5.1562-11.906 9.2344-3.5625 4.8281-5.4844 10.594-5.4844 16.594v31.125c0.375 15.469 23.062 15.469 23.438 0v-24.609c1.4062 0.5625 241.4 98.719 242.68 99.234v74.625l-249.94-102.19-9.75-3.9844c-7.9219-3.2344-16.5-3.9375-24.797-1.9688v-72.234c0.14062-11.109-7.0781-21.703-17.391-25.828l-246.19-100.64c-9.1875-3.75-19.312-3.75-28.5 0l-246.28 100.69c-4.6406 1.9219-8.5781 5.0156-11.531 8.9062-0.1875 0.1875-0.375 0.375-0.46875 0.65625-3.4219 4.7812-5.2969 10.359-5.2969 16.266v110.95c0 11.391 6.8438 21.562 17.344 25.828l87.938 35.953-87.938 35.953c-7.4531 3.0938-13.406 9.4219-15.938 17.109-0.9375 2.8125-1.4062 5.7656-1.4062 8.7656v110.95c-0.046876 11.484 6.9844 21.422 17.344 25.875l87.938 35.953-87.938 35.953c-10.266 4.1719-17.438 14.719-17.344 25.875v110.95c0 10.875 6.2344 20.531 15.938 25.125 1.2188 0.89062 233.16 95.297 234.61 96.047v110.62c0 12.281 7.3594 23.25 18.75 27.938l284.16 116.16c7.2188 3.0469 15.703 2.9531 22.828 0l284.16-116.16c8.5312-3.4688 14.812-10.5 17.391-19.031 2.8125-0.046875 0.70312-115.83 1.3125-119.53l233.16-95.297c10.359-4.4531 17.438-14.391 17.344-25.875v-110.95c0.09375-11.156-7.0781-21.656-17.344-25.875l-87.938-35.953 87.938-35.953c0.51562-0.1875 0.9375-0.46875 1.4062-0.70312 9.7031-4.5938 15.938-14.297 15.938-25.172v-110.95c0.09375-11.156-7.0781-21.656-17.344-25.875l-87.938-35.953 87.938-35.953c10.547-4.3125 17.391-14.438 17.391-25.875zm-1087 347.26 93.562-38.25 114.28 46.688v76.5c-50.344-20.578-156.94-64.125-207.84-84.984zm813-115.45c0 2.7188-1.6875 5.2031-4.1719 6.2344l-274.97 112.41v-125.63l279.14-114.09zm-4.1719 240.79-274.97 112.41v-125.63l279.14-114.09v121.08c0 2.7188-1.6875 5.2031-4.1719 6.2344zm-573.37 0c-2.5312-1.0312-4.1719-3.4688-4.1719-6.2344v-121.08l279.14 114.09v125.63c-60.562-24.75-216.47-88.5-274.97-112.41zm279.74-95.344c3.9375 0.98438 7.9688 1.0312 11.953 0.42188 2.25-0.375 4.5-1.0312 6.4219-1.8281l188.86-77.203 71.344 29.156-269.06 109.97c-0.84375 0.1875-1.6406 0.42187-2.5312 0.46875-0.84375 0-1.7344-0.14063-2.5312-0.46875l-269.06-109.97c10.969-4.5 59.438-24.281 71.344-29.156 49.453 19.828 143.68 59.484 193.31 78.609zm-261.89-75.891-6.4688 2.625v-36l44.062 18zm37.594 219.19-44.062 18v-36zm462.52 0 44.062-18v36zm-0.046875-234.56 44.062-18v36zm40.359-192.74c-1.0781 0.23438-269.06 110.39-270.14 110.2-1.3125 0.42188-2.7188 0.32812-4.0312-0.1875l-240.28-98.203c-14.297-5.5312-23.109 15.422-8.8594 21.703l240 98.109v125.63l-184.13-75.281-90.844-37.125c-2.5312-1.0312-4.1719-3.4688-4.1719-6.2344v-16.641c0.14063-3.8438-0.32812-110.67 0.23438-111.19 0.046874-0.1875 0.09375-0.375 0.14062-0.5625 0.70313-1.7812 1.9688-3.1875 3.75-3.9844l279.94-114.42c4.3125-1.7812 9.0938-1.7812 13.453 0l264.89 108.28zm-456.37-60.797-90.562 37.031v-74.625l242.68-99.234v74.672l-152.16 62.203zm-129.52 88.734v76.5c-50.344-20.578-156.94-64.125-207.84-84.984l93.562-38.25 114.23 46.688zm-106.55 58.266 106.55 43.547v8.7656c-0.046875 10.828 6.1406 21.141 15.562 26.391v55.641c-3.4688 2.0156-6.6094 4.6406-9.0938 7.7812-0.09375 0.14062-0.1875 0.28125-0.32812 0.42188-2.0625 2.6719-3.6562 5.7188-4.6875 8.9531-56.25-23.016-169.45-69.234-225.74-92.25-1.6875-0.65625-2.6719-2.3906-2.7656-4.1719v-104.39l120.56 49.266zm0 234.56 106.55 43.547v8.8125c-0.046875 10.828 6.1406 21.141 15.562 26.391v55.641c-3.4688 2.0156-6.6094 4.6406-9.0938 7.7812-0.09375 0.14062-0.1875 0.28125-0.32812 0.42188-2.0625 2.6719-3.6562 5.7188-4.6875 8.9531l-225.74-92.297c-1.5469-0.60938-2.5781-2.1094-2.7188-3.75-0.375-0.32812 0.14063-104.39-0.046874-104.77l120.56 49.266zm432.56 279.94 279.14-114.09v121.08c0 2.0156-0.9375 3.9375-2.4375 5.2031-1.3125 1.4531-274.97 112.41-276.71 113.44zm529.64-224.44c-0.14062 1.6406-1.1719 3.1406-2.7188 3.7969l-225.74 92.297c-1.125-3.2812-2.7188-6.4688-4.875-9.1875-2.5312-3.2344-5.6719-5.9062-9.2344-7.9688v-55.641c8.1562-4.5469 13.922-12.844 15.234-22.078 0.5625-2.9531 0.23438-10.078 0.32812-13.125 56.156-22.969 170.68-69.797 227.11-92.859-0.046875 0.51562 0.09375 104.34-0.046875 104.77zm-136.82-74.156-90.188 36.891v-76.5l114.28-46.688 93.562 38.25-117.61 48.094zm136.82-160.4c-0.14062 1.6406-1.1719 3.1406-2.7188 3.7969-56.297 23.016-169.55 69.281-225.74 92.25-1.125-3.2812-2.7188-6.4688-4.875-9.1875-2.5312-3.2344-5.6719-5.9062-9.2344-7.9688v-55.641c8.1562-4.5469 13.922-12.844 15.234-22.078 0.5625-2.9531 0.23438-10.078 0.32812-13.125 56.156-22.969 170.68-69.797 227.11-92.859-0.046875 0.51562 0.09375 104.34-0.046875 104.77zm-19.219-122.26c-51.141 20.906-157.26 64.312-207.84 84.984v-76.5l114.23-46.688 93.562 38.25zm-240.47-328.45c3.4688-1.4062 7.2656-1.4062 10.781 0l229.69 93.891c-1.7344 0.375-233.34 96.094-235.13 95.766-1.7344 0.28125-233.39-95.438-235.08-95.766l229.74-93.938zm-574.13 0.046875c3.4688-1.4062 7.3125-1.4062 10.781 0l229.74 93.891c-1.7344 0.375-233.29 96.094-235.08 95.766-1.7344 0.28125-233.39-95.438-235.13-95.766zm-248.95 215.72v-104.39c1.4062 0.5625 241.4 98.719 242.68 99.234v84.422c-3.4688 2.0156-6.6094 4.6406-9.0938 7.7812-0.09375 0.14062-0.1875 0.28125-0.32812 0.42188-0.09375 0.09375-0.1875 0.1875-0.23438 0.32812-1.9219 2.625-3.4688 5.5312-4.4531 8.625l-225.74-92.297c-1.6875-0.65625-2.7656-2.3438-2.7656-4.125zm250.55 700.92v-121.08l243.32 99.469c6 2.4375 12.844-0.42188 15.281-6.4219s-0.42188-12.844-6.4219-15.281l-232.92-95.203 71.344-29.156 188.86 77.203c5.2031 2.1094 10.875 2.7656 16.406 1.8281 2.25-0.375 4.5-1.0312 6.4219-1.8281l188.86-77.203 71.344 29.156-269.06 109.97c-0.84375 0.1875-1.6406 0.375-2.5312 0.46875-6.4688 0-11.719 5.25-11.719 11.719v134.95l-274.97-112.41c-2.5312-1.0312-4.1719-3.4688-4.1719-6.2344zm832.26-700.92c0 1.7812-1.125 3.4688-2.8125 4.1719-56.297 23.016-169.55 69.281-225.74 92.297-1.125-3.3281-2.7188-6.4688-4.875-9.1875-2.5312-3.2344-5.6719-5.9062-9.2344-7.9688v-84.422l242.68-99.234v104.39z"/>
 <path d="m426.84 1001.1-69.703-28.5c-14.438-5.4844-23.062 15.469-8.8594 21.703l69.703 28.5c1.4531 0.60938 2.9531 0.89062 4.4062 0.89062 12.562 0.09375 16.312-17.766 4.4531-22.547z"/>
 <path d="m501.61 1017.8c-6.4688 0-11.719 5.25-11.719 11.719v24c0.375 15.469 23.062 15.469 23.438 0v-24c0-6.4688-5.25-11.719-11.719-11.719z"/>
 <path d="m458.53 1000.3c-6.4688 0-11.719 5.25-11.719 11.719v24c0.375 15.469 23.062 15.469 23.438 0v-24c0-6.4688-5.25-11.719-11.719-11.719z"/>
 <path d="m544.69 1035.5c-6.4688 0-11.719 5.25-11.719 11.719v24c0.375 15.469 23.062 15.469 23.438 0v-24c0-6.4688-5.25-11.719-11.719-11.719z"/>
 <path d="m860.72 942.37c-7.125-4.7812-16.172-5.7188-24.141-2.4375-0.046875 0-56.156 22.969-56.203 22.969l-133.87 54.75c-9.75 3.9844-16.031 13.359-16.031 23.859v29.391c-0.51562 17.766 19.312 31.078 35.531 23.859l190.08-77.719c9.75-3.9844 16.031-13.359 16.031-23.859v-29.391c0-8.625-4.2656-16.594-11.391-21.422zm-203.58 130.64c-1.7344 0.5625-3.0938-0.32812-3.2344-2.1562v-29.391c0-0.9375 0.5625-1.7812 1.4531-2.1562l117.89-48.188v34.453zm191.53-79.875c0 0.9375-0.5625 1.8281-1.4531 2.1562l-50.531 20.672v-34.453l48.75-19.922c1.5938-0.5625 3.1406 0.28125 3.2344 2.1562z"/>
 <path d="m422.44 789.14c12.562 0.09375 16.312-17.766 4.4531-22.547l-69.703-28.5c-14.438-5.4844-23.062 15.469-8.8594 21.703l69.703 28.5c1.4531 0.60938 2.9531 0.89062 4.4062 0.89062z"/>
 <path d="m501.61 830.72c6.4688 0 11.719-5.25 11.719-11.719v-24c-0.375-15.469-23.062-15.469-23.438 0v24c0 6.4688 5.25 11.719 11.719 11.719z"/>
 <path d="m458.53 813.14c6.4688 0 11.719-5.25 11.719-11.719v-24c-0.375-15.469-23.062-15.469-23.438 0v24c0 6.4688 5.25 11.719 11.719 11.719z"/>
 <path d="m544.69 848.34c6.4688 0 11.719-5.25 11.719-11.719v-24c-0.375-15.469-23.062-15.469-23.438 0v24c0 6.4688 5.25 11.719 11.719 11.719z"/>
 <path d="m860.72 707.81c-7.125-4.7812-16.172-5.7188-24.141-2.4375-0.09375 0.046875-56.156 22.922-56.203 22.969l-133.87 54.703c-9.75 3.9844-16.031 13.359-16.031 23.859v29.391c-0.51562 17.766 19.312 31.078 35.531 23.859l190.08-77.719c9.75-3.9844 16.031-13.359 16.031-23.859v-29.391c0-8.625-4.2656-16.594-11.391-21.422zm-203.58 130.64c-1.7812 0.5625-3.0938-0.32812-3.2344-2.1562v-29.391c0-0.9375 0.5625-1.7812 1.4531-2.1562l117.89-48.188v34.453zm191.53-79.875c0 0.9375-0.5625 1.8281-1.4531 2.1562l-50.531 20.672v-34.453l48.75-19.922c1.5938-0.5625 3.1406 0.28125 3.2344 2.1562z"/>
 <path d="m588.61 342.94-101.72 41.578c-23.391 9.1406-23.344 43.547 0 52.688l101.72 41.578c7.3594 3 15.469 3 22.828 0l101.72-41.578c23.344-9.0938 23.391-43.547 0-52.688l-101.72-41.578c-7.3594-3-15.469-3-22.828 0zm13.922 21.703 101.72 41.578c4.2188 1.8281 4.2188 7.5 0 9.2812l-101.72 41.578c-1.6406 0.65625-3.4219 0.65625-5.0625 0l-101.72-41.578c-4.3125-1.875-4.1719-7.5 0-9.2812l101.72-41.578c1.6406-0.65625 3.4688-0.65625 5.0625 0z"/>
 <path d="m348.32 525.19 69.703 28.5c14.344 5.4844 23.109-15.422 8.8594-21.703l-69.703-28.5c-14.438-5.4844-23.062 15.469-8.8594 21.703z"/>
 <path d="m501.61 596.16c6.4688 0 11.719-5.25 11.719-11.719v-24c-0.375-15.469-23.062-15.469-23.438 0v24c0 6.4688 5.25 11.719 11.719 11.719z"/>
 <path d="m458.53 578.58c6.4688 0 11.719-5.25 11.719-11.719v-24c-0.375-15.469-23.062-15.469-23.438 0v24c0 6.4688 5.25 11.719 11.719 11.719z"/>
 <path d="m544.69 613.78c6.4688 0 11.719-5.25 11.719-11.719v-24c-0.375-15.469-23.062-15.469-23.438 0v24c0 6.4688 5.25 11.719 11.719 11.719z"/>
 <path d="m641.86 623.11c7.1719 4.8281 16.219 5.7188 24.141 2.4375l190.08-77.719c9.75-3.9844 16.031-13.359 16.031-23.859v-29.391c0.51562-17.766-19.266-31.078-35.531-23.859-0.046875 0-56.156 22.969-56.203 22.969l-133.87 54.703c-9.75 3.9844-16.031 13.359-16.031 23.859v29.391c0 8.625 4.2656 16.594 11.391 21.422zm203.58-130.64c1.5938-0.5625 3.1406 0.28125 3.2344 2.1562v29.391c0 0.9375-0.5625 1.8281-1.4531 2.1562l-50.531 20.672v-34.453zm-191.53 79.875c0-0.9375 0.5625-1.7812 1.4531-2.1562l117.89-48.188v34.453l-116.11 47.438c-0.9375 0.375-1.7344 0.09375-2.2031-0.23438s-1.0312-0.9375-1.0312-1.9688v-29.391z"/>
</svg>
