<?xml version="1.0" encoding="UTF-8"?>
<svg width="1200pt" height="1200pt" version="1.1" viewBox="0 0 1200 1200" xmlns="http://www.w3.org/2000/svg">
 <path d="m365.34 340.36c28.172 25.125 39.562 68.297 33.844 128.39-0.5625 6.1875-5.8125 10.875-11.906 10.875-0.375 0-0.75 0-1.125-0.046876-6.6094-0.60937-11.438-6.4688-10.781-13.078 4.8281-51.328-4.125-88.734-25.922-108.23-18.609-16.594-47.25-21-85.078-12.984-6.4688 1.3594-12.844-2.7656-14.203-9.2344s2.7656-12.844 9.2344-14.203c22.078-4.6406 41.719-5.5312 59.016-2.8125-3-7.3594-5.0156-15.141-5.9062-22.969-2.8125-24.469 5.2031-50.156 21.516-68.672 4.3594-4.9688 11.953-5.4375 16.922-1.0781 4.9688 4.3594 5.4844 11.953 1.0781 16.922-11.859 13.5-17.719 32.25-15.703 50.109 1.7812 15.422 9.4688 30.328 21.188 40.875 0.09375 0.09375 0.09375 0.1875 0.1875 0.28125 2.625 1.875 5.25 3.75 7.6875 5.9062zm76.219-146.21c1.125 0.32812 2.2969 0.51562 3.4219 0.51562 5.1562 0 9.9375-3.3281 11.484-8.5312 5.25-17.484 17.391-32.578 33.375-41.438 5.8125-3.1875 7.875-10.5 4.6406-16.312-3.1875-5.7656-10.5-7.9219-16.312-4.6406-21.375 11.859-37.688 32.109-44.719 55.547-1.875 6.3281 1.6875 13.031 8.0625 14.953zm72.844 214.64c5.8125 0 10.969-4.2656 11.859-10.219 0.98438-6.5625-3.5156-12.656-10.078-13.641-26.016-3.9375-48-29.812-51.094-60.281-2.7188-26.766 7.5-56.953 28.781-85.031 3.6562-4.8281 3.1406-11.672-1.2656-15.891-4.3594-4.2188-11.203-4.5-15.938-0.60938-20.484 16.875-49.359 24.047-75.328 18.75-6.6094-1.2188-12.844 2.9062-14.156 9.375-1.3125 6.5156 2.8594 12.844 9.375 14.156 18.656 3.75 37.969 2.6719 55.969-2.7656-9.4688 21.703-13.406 43.734-11.297 64.453 4.1719 41.016 34.875 76.078 71.391 81.609 0.60938 0.09375 1.2188 0.14062 1.7812 0.14062zm571.26 318.84c11.109 50.391-5.625 94.734-46.219 122.16-1.6875 1.125-3.4688 2.1562-5.25 3.2344 0.9375 51-14.766 91.781-45.656 117.94-21.797 18.469-50.766 29.438-85.641 33-63.375 79.688-159.14 130.5-256.18 135.94-1.1719 0.046875-2.8125 0.14062-4.7812 0.14062-9.9375 0-28.594-1.6406-41.016-12.609-1.1719-0.98438-2.1562-2.0625-3.1406-3.1406-1.0781 1.125-2.1094 2.2969-3.375 3.375-12.188 10.781-30.797 12.375-40.734 12.375-2.0156 0-3.6562-0.046875-4.875-0.14062-96.984-5.4375-192.74-56.25-256.13-135.94-0.28125-0.32812-0.32812-0.75-0.5625-1.125-33.75-3.9844-60.422-14.859-80.438-32.859-27.703-24.938-41.25-63.328-40.547-113.91-3.6562-1.9688-7.2188-4.0312-10.5-6.2812-40.641-27.375-57.328-71.766-46.219-122.16-8.5312-7.5938-15.516-16.266-20.625-25.922-15.844-30.047-12.328-65.484 9.6094-100.08-8.0156-11.203-13.078-24.562-14.203-39.375-2.5312-32.438 12.234-71.203 40.688-87-0.375-0.60937-0.84375-1.1719-1.1719-1.7812-12.609-24.141-13.219-50.531-1.7812-76.453 7.5938-17.156 20.156-32.719 35.484-45.094-6.5156-27.891-2.3906-57.844 11.766-82.781 14.062-24.844 37.547-43.734 64.688-52.5 5.3906-26.719 17.672-52.031 36.375-72 34.594-36.938 88.594-53.719 138.1-43.312 10.969-10.547 23.953-19.594 38.906-26.578 39.188-18.328 84-19.641 119.95-3.5156 11.531 5.1562 21 13.406 27.891 23.438 6.8906-10.031 16.359-18.281 27.891-23.438 35.953-16.172 80.812-14.812 119.95 3.5156 14.953 6.9844 27.938 16.031 38.906 26.578 49.5-10.406 103.5 6.375 138.1 43.312 18.703 19.969 30.984 45.281 36.375 72 27.141 8.7656 50.625 27.656 64.688 52.5 14.109 24.938 18.281 54.891 11.766 82.781 15.328 12.375 27.938 27.938 35.484 45.094 11.438 25.875 10.828 52.312-1.7344 76.359-0.32812 0.65625-0.79687 1.2656-1.1719 1.9219 28.406 15.844 43.219 54.562 40.688 87-1.1719 14.766-6.2344 28.172-14.203 39.375 21.938 34.594 25.453 70.031 9.6094 100.08-5.1094 9.6562-12.094 18.328-20.625 25.922zm-500.06 256.26v-5.8125c-0.84375 0.79688-1.6406 1.6875-2.5312 2.4375-29.391 25.594-64.781 39.141-108.28 41.391h-0.60937c-6.3281 0-11.625-4.9688-11.953-11.391-0.32812-6.6094 4.7344-12.234 11.344-12.609 37.922-1.9688 68.578-13.547 93.75-35.484 11.109-9.7031 17.953-24.562 18.656-40.828-0.046874-26.906-0.046874-55.312-0.09375-82.734v-0.375c-0.046874-45.281-0.09375-87.516-0.09375-114.8-18.328 20.109-42.844 30.234-73.406 30.234-17.156 0-36.234-3.1875-57.141-9.5625-6.3281-1.9219-9.8906-8.625-7.9688-14.953 1.9219-6.3281 8.5781-9.9375 14.953-7.9688 52.734 16.078 89.016 9.5625 110.91-19.969 12.281-16.594 14.859-35.859 14.859-49.125v-116.2c-8.1562-26.203-23.297-39.984-47.625-43.078-6.5625-0.84375-11.203-6.8438-10.406-13.406 0.84375-6.5625 6.7969-11.109 13.406-10.406 18.094 2.2969 32.953 9.2344 44.578 20.484v-150.14c-8.1562-26.203-23.297-39.984-47.625-43.078-6.5625-0.84375-11.203-6.8438-10.406-13.406 0.84375-6.5625 6.7969-11.109 13.406-10.406 18.094 2.2969 32.953 9.2344 44.578 20.484v-160.18c0-17.203-10.078-32.859-25.734-39.891-29.625-13.312-66.984-12.047-99.938 3.3281-30.328 14.203-51.469 37.875-59.484 66.562-1.7812 6.375-8.4375 10.125-14.766 8.3438-6.375-1.7812-10.125-8.3906-8.3438-14.766 3.375-12.141 8.7188-23.438 15.609-33.844-37.641-3.6094-76.688 10.547-102.7 38.25-29.344 31.312-40.453 78.141-28.359 119.3 1.875 6.375-1.7812 13.031-8.1094 14.906-1.125 0.32812-2.25 0.46875-3.375 0.46875-5.2031 0-9.9844-3.375-11.484-8.625-4.1719-14.203-5.7656-28.922-5.4844-43.641-17.062 7.9219-31.547 21.047-40.875 37.5-9.7031 17.109-13.406 37.172-10.922 56.578 8.1094-4.2188 16.594-7.6406 25.312-9.8906 6.4219-1.6875 12.984 2.1094 14.672 8.5312s-2.1094 12.984-8.5312 14.672c-28.453 7.5-55.266 29.953-66.703 55.828-5.8594 13.219-10.406 33.609 1.0312 55.5 7.8281 14.578 29.016 28.219 46.781 30.609 14.484-8.7656 31.969-12.469 48.797-10.359-0.32812-20.719 4.2656-41.391 13.172-58.5 3.0469-5.8594 10.266-8.1562 16.172-5.1094 5.8594 3.0469 8.1562 10.312 5.1094 16.172-18.656 35.859-13.266 91.875 21.844 113.16 14.016 7.8281 29.953 9.5156 46.875 9.4219-1.1719-1.4062-2.5312-2.625-3.6094-4.0781-9.9844-14.062-13.922-31.828-10.875-48.797 1.1719-6.5156 7.3594-10.828 13.922-9.6562 6.5156 1.1719 10.828 7.4062 9.6562 13.922-1.875 10.5 0.65625 21.938 6.7969 30.656 6.1406 8.625 16.031 14.812 26.531 16.5 9.8906-0.14062 19.875 0.1875 29.766 1.8281 22.734 3.1406 46.406 12.938 70.078 29.109 5.4844 3.75 6.8906 11.203 3.1406 16.688-2.3438 3.4219-6.0938 5.25-9.9375 5.25-2.3438 0-4.6875-0.65625-6.75-2.0625-20.859-14.25-40.547-22.5-60.188-25.219-14.578-2.4375-29.719-1.6875-45.703-0.89062-27.281 1.3594-55.5 2.7656-81.797-11.859-22.5-13.641-35.812-36.469-41.25-61.547-14.016-3.5625-29.531-0.84375-41.484 7.3125-12.047 8.2031-20.297 21.75-21.984 36.234-0.70313 6.0938-5.9062 10.594-11.906 10.594-0.46875 0-0.9375 0-1.4062-0.09375-6.5625-0.79688-11.297-6.75-10.5-13.312 1.5469-13.031 6.75-25.547 14.531-36.047-10.781-4.0781-21.047-10.312-29.719-17.859-24.141 8.9531-34.641 43.312-32.812 66.234 2.25 28.5 25.594 49.734 56.766 51.609 3.0938 0.1875 6.2344 0.28125 9.375 0.375 9.375 0.28125 19.031 0.60938 28.875 3.0469 17.906 4.5 31.594 16.969 41.812 38.062 2.8594 5.9531 0.375 13.125-5.5781 16.031-1.6875 0.79688-3.4688 1.1719-5.2031 1.1719-4.4531 0-8.7188-2.4844-10.828-6.75-7.125-14.719-15.141-22.5-26.062-25.266-7.3125-1.8281-15.328-2.0625-23.766-2.3438-3.3281-0.09375-6.7031-0.23438-10.078-0.42188-18.281-1.125-34.547-7.125-47.625-16.734-14.578 25.406-16.781 50.484-5.8125 71.25 15.656 29.625 55.219 47.812 105.94 48.656 6.6094 0.09375 11.906 5.5781 11.812 12.188-0.09375 6.5625-5.4375 11.812-12 11.812h-0.1875c-32.719-0.5625-61.547-7.9219-84.328-20.484-4.7812 36.094 8.5312 67.453 37.875 87.234 38.25 25.781 104.62 31.828 171.1-9.2344-15.984-8.625-30.281-20.812-40.875-35.672-11.203-15.656-17.344-33.141-18.141-50.672-25.406-2.0625-49.922-10.453-71.203-24.609-5.5312-3.6562-7.0312-11.109-3.3281-16.641 3.6562-5.4844 11.062-7.0312 16.641-3.3281 18.094 12 38.906 18.891 60.516 20.578 10.875-37.078 48.609-56.438 109.83-56.438 1.5938 0 3.1875 0 4.7812 0.046875 6.6094 0.09375 11.906 5.5781 11.812 12.188-0.09375 6.5625-5.4375 11.812-12 11.812h-0.1875c-37.688-0.60938-84.188 6.1875-92.109 42.047-3.9844 21.609 4.8281 39.75 12.891 51.094 14.438 20.203 38.156 34.969 61.969 38.531 12.469 1.8281 25.078 2.2969 38.438 2.8125 27.094 1.0312 55.172 2.1094 81.891 15.234 5.9531 2.9062 8.3906 10.125 5.4844 16.078-2.0625 4.2188-6.3281 6.7031-10.781 6.7031-1.7812 0-3.5625-0.375-5.2969-1.2188-22.125-10.875-46.453-11.812-72.234-12.797-13.406-0.51562-27.234-1.0312-41.016-3.0469-3.2812-0.46875-6.5625-1.2188-9.7969-2.0156-42.75 30.562-86.578 42.938-125.44 42.938-18.703 0-36.141-2.9531-51.844-8.0156 1.0781 38.438 11.953 67.359 32.578 85.875 28.641 25.781 78.047 34.078 146.81 24.656 6.5156-0.84375 12.609 3.7031 13.5 10.266 0.89062 6.5625-3.7031 12.609-10.266 13.5-19.125 2.625-36.75 3.8906-53.109 3.9844 58.781 65.391 141.66 106.64 225.47 111.33 11.906 0.65625 23.484-1.9688 28.594-6.4688 6.5156-5.4375 6.7031-15.422 6.4688-35.672-0.09375-7.0312-0.14063-14.859 0.09375-23.531 0.09375-12.047 0.14062-40.359 0.23437-66.234zm478.31-241.26c-22.828 12.562-51.609 19.969-84.328 20.484h-0.1875c-6.5156 0-11.906-5.25-12-11.812-0.09375-6.6094 5.1562-12.094 11.812-12.188 50.672-0.84375 90.281-19.031 105.94-48.656 10.969-20.766 8.7656-45.844-5.8125-71.25-13.031 9.6094-29.344 15.656-47.625 16.734-3.3281 0.1875-6.7031 0.32813-10.078 0.42188-8.4375 0.28125-16.453 0.51562-23.812 2.3438-10.875 2.7188-18.938 10.547-26.062 25.266-2.0625 4.2656-6.3281 6.75-10.828 6.75-1.7344 0-3.5156-0.375-5.2031-1.1719-5.9531-2.9062-8.4375-10.078-5.5781-16.031 10.219-21.141 23.906-33.562 41.812-38.062 9.8438-2.4844 19.5-2.7656 28.875-3.0469 3.1406-0.09375 6.2344-0.1875 9.375-0.375 31.172-1.875 54.516-23.109 56.766-51.609 1.8281-23.109-8.8594-57.75-33.328-66.422-10.312 7.8281-23.344 12.984-38.438 12.984-9 0-18.703-1.9219-28.922-5.9531-10.688 6.5156-23.109 10.312-35.578 10.969-6 23.203-18.984 44.016-39.938 56.719-26.672 14.906-54.891 13.5-82.172 12.094-16.031-0.79687-31.125-1.5469-45.375 0.84375-19.969 2.7656-39.656 11.016-60.516 25.266-2.0625 1.4062-4.4062 2.0625-6.75 2.0625-3.8438 0-7.5938-1.8281-9.9375-5.25-3.75-5.4844-2.2969-12.938 3.1406-16.688 23.672-16.172 47.344-25.969 70.406-29.156 9.7031-1.6406 19.594-1.9688 29.438-1.8281 10.453-1.7344 20.344-7.875 26.484-16.547 6.1406-8.6719 8.7188-20.156 6.7969-30.656-1.1719-6.5156 3.1406-12.75 9.6562-13.922 6.6094-1.1719 12.75 3.1406 13.922 9.6562 3.0469 16.969-0.89062 34.734-10.875 48.797-1.0781 1.5-2.3906 2.7188-3.6094 4.125 16.922 0.09375 32.906-1.6406 47.25-9.6094 34.734-21.047 40.125-77.062 21.469-112.92-3.0469-5.8594-0.75-13.125 5.1094-16.172 5.8594-3.0469 13.125-0.75 16.172 5.1094 9.6562 18.516 14.109 41.25 12.891 63.656 10.219-1.5 20.062-6.1406 27.562-13.172 9.9844-9.375 15.938-23.109 15.984-36.797 0-6.6094 5.3906-11.953 12-11.953s12 5.3906 11.953 12c-0.046875 15.844-5.5312 31.734-15 44.531 23.062 4.0312 37.734-9.6094 43.312-20.016 11.391-21.797 6.8438-42.188 0.98438-55.406-11.438-25.875-38.25-48.328-66.703-55.828-6.4219-1.6875-10.219-8.25-8.5312-14.672 1.6875-6.4219 8.25-10.219 14.672-8.5312 8.7188 2.2969 17.203 5.6719 25.312 9.8906 2.5312-19.406-1.2188-39.469-10.922-56.578-9.2812-16.453-23.812-29.531-40.875-37.5 0.28125 14.719-1.3125 29.438-5.4844 43.641-1.5469 5.2031-6.3281 8.625-11.484 8.625-1.125 0-2.25-0.14062-3.375-0.46875-6.3281-1.875-9.9844-8.5312-8.1094-14.906 12.094-41.156 0.98438-87.984-28.359-119.3-25.969-27.703-65.016-41.859-102.7-38.25 6.8906 10.406 12.234 21.703 15.609 33.844 1.7812 6.375-1.9219 12.984-8.3438 14.766-1.0781 0.28125-2.1562 0.42188-3.2344 0.42188-5.25 0-10.078-3.4688-11.531-8.7656-8.0156-28.734-29.156-52.359-59.484-66.562-32.953-15.422-70.312-16.688-99.938-3.3281-15.609 7.0312-25.734 22.688-25.734 39.891v160.18c11.625-11.25 26.484-18.188 44.578-20.484 6.6562-0.75 12.562 3.7969 13.406 10.406 0.84375 6.5625-3.7969 12.562-10.406 13.406-24.328 3.0938-39.469 16.828-47.625 43.078v167.58c2.4844-2.7188 5.1562-5.3438 8.0156-7.7812 24.141-20.812 55.031-28.5 74.953-26.766 6.6094 0.5625 11.484 6.375 10.922 12.938-0.5625 6.6094-6.4688 11.578-12.938 10.922-14.484-1.125-38.531 4.8281-57.281 21-9.9844 8.625-22.172 23.625-23.672 46.172v88.594c0 13.266 2.5781 32.531 14.859 49.125 21.891 29.578 58.172 36.094 110.91 19.969 6.3281-1.9688 13.031 1.6406 14.953 7.9688s-1.6406 13.031-7.9688 14.953c-20.906 6.375-39.984 9.5625-57.141 9.5625-33.094 0-59.062-11.953-77.812-35.531 0 27 0.046875 72.094 0.09375 120.66-0.14062 30.656 9.5156 54.516 27.984 68.953 19.078 14.906 47.297 18.797 79.734 11.344-1.5938-9.375-1.5938-19.031 0.23438-28.453 1.2656-6.5156 7.5469-10.734 14.062-9.4688s10.734 7.5469 9.4688 14.062c-3.375 17.391 2.3906 36.891 14.719 49.641 4.5938 4.7812 4.4531 12.375-0.28125 16.969-2.3438 2.25-5.3438 3.375-8.3438 3.375-3.1406 0-6.2812-1.2188-8.625-3.6562-5.5781-5.7656-10.078-12.469-13.641-19.641-13.219 3.2344-25.969 4.9219-38.016 4.9219-24.984 0-47.016-6.8438-64.125-20.203-4.875-3.7969-9.1406-8.25-13.078-12.984 0.09375 68.062 0.14062 127.64 0.23438 136.55 0.28125 8.3438 0.1875 16.172 0.09375 23.25-0.23438 20.25-0.046875 30.234 6.2344 35.438 5.3438 4.7344 17.203 7.4062 28.828 6.7031 83.625-4.6875 166.22-45.703 225-110.77-19.312-0.46875-40.031-2.7656-62.062-7.125-6.5156-1.2656-10.734-7.5938-9.4219-14.109 1.2656-6.5156 7.5938-10.781 14.109-9.4219 71.203 14.062 126.56 6.5625 160.03-21.797 23.391-19.828 35.812-49.5 37.125-88.172-16.594 6.0469-35.391 9.5156-55.594 9.7031 0.28125 0.98438 0.65625 1.9688 0.70312 3.0938 0.65625 25.734-10.5 51.188-29.953 68.062-2.25 1.9688-5.0625 2.9531-7.875 2.9531-3.3281 0-6.7031-1.4062-9.0469-4.125-4.3594-5.0156-3.7969-12.562 1.1719-16.922 13.875-12.047 22.172-30.938 21.703-49.312-0.046875-1.7812 0.32812-3.4219 0.98438-4.9688-33.328-3.7031-69.328-16.406-104.58-41.625-3.2344 0.79688-6.5156 1.5-9.7969 2.0156-13.781 2.0156-27.656 2.5312-41.109 3.0469-8.8125 0.32812-17.625 0.65625-26.344 1.4531-0.375 0.046875-0.70312 0.046875-1.0781 0.046875-6.1406 0-11.391-4.6875-11.953-10.922-0.5625-6.6094 4.3125-12.422 10.875-12.984 9.1406-0.79688 18.328-1.1719 27.562-1.5 13.359-0.51562 26.016-0.98438 38.484-2.8125 23.766-3.5156 47.484-18.281 61.922-38.531 8.1094-11.344 16.875-29.484 12.844-51.469-7.875-35.438-54.281-42.328-92.016-41.672-6.9375-0.375-12.094-5.2031-12.188-11.812s5.1562-12.094 11.812-12.188c63.797-0.75 103.69 18.516 114.66 56.391 21.562-1.6406 42.422-8.5312 60.469-20.531 5.5312-3.6562 12.984-2.1562 16.641 3.3281 3.6562 5.5312 2.1562 12.984-3.3281 16.641-21.281 14.156-45.844 22.547-71.25 24.609-0.79688 17.625-6.9375 35.062-18.094 50.672-10.594 14.859-24.891 27.047-40.875 35.672 66.516 41.016 132.89 35.016 171.1 9.2344 29.344-19.781 42.656-51.141 37.875-87.234zm-263.11-273.84c0.5625 6.1875 5.8125 10.875 11.906 10.875 0.375 0 0.75 0 1.125-0.046875 6.6094-0.60938 11.438-6.4688 10.781-13.078-4.8281-51.328 4.125-88.734 25.922-108.23 18.609-16.594 47.25-21 85.078-12.984 6.4688 1.3594 12.844-2.7656 14.203-9.2344s-2.7656-12.844-9.2344-14.203c-21.891-4.6406-41.438-5.5312-58.594-2.8594 3.2344-7.6406 5.4375-15.75 6.375-24.047 2.8125-24.469-5.2031-50.156-21.516-68.719-4.3594-4.9688-11.953-5.4375-16.922-1.0781s-5.4844 11.953-1.0781 16.922c11.859 13.5 17.719 32.25 15.703 50.109-1.9219 16.594-10.875 32.766-24 43.266-0.32812 0.28125-0.51562 0.65625-0.79688 0.9375-1.7344 1.3125-3.5156 2.5312-5.1562 3.9844-28.172 25.125-39.562 68.297-33.844 128.39zm-46.359-203.48c0.046875 0.14062 0.1875 0.28125 0.23438 0.42188-7.0781 8.0625-13.172 17.016-18.047 26.672-13.312 26.25-17.203 56.625-10.969 85.406 1.2188 5.625 6.1875 9.4688 11.719 9.4688 0.84375 0 1.6875-0.09375 2.5312-0.28125 6.4688-1.4062 10.594-7.7812 9.1875-14.25-5.0156-23.109-1.7344-48.422 8.9062-69.516 10.641-21.047 29.109-38.672 50.719-48.328 6.0469-2.7188 8.7656-9.7969 6.0469-15.844s-9.7969-8.7188-15.844-6.0469c-9.4219 4.2188-18.188 9.5625-26.25 15.844-4.7812-8.5312-11.109-16.031-18.75-22.031 6.75-18.188 7.1719-38.906 0.79688-57.188-7.4531-21.422-24.281-39.75-45-49.031-6.0469-2.7188-13.125 0-15.844 6.0469s0 13.125 6.0469 15.844c14.812 6.6562 26.812 19.734 32.156 35.062 4.1719 11.953 4.1719 25.312 0.46875 37.5-13.078-4.7812-27.328-6.2344-41.203-3.0938-6.4688 1.4531-10.5 7.875-9.0469 14.344s7.9219 10.5 14.344 9.0469c22.875-5.25 48.797 8.25 57.703 30zm-251.9 655.08c5.7656-3.2812 7.7344-10.594 4.4531-16.359s-10.641-7.7812-16.359-4.4531c-20.484 11.719-46.688 13.453-68.859 5.2031 2.7656-7.5 4.4531-15.375 4.5938-23.484 0.09375-6.6094-5.1562-12.094-11.766-12.188-6.375 0.32812-12.094 5.1562-12.188 11.766-0.28125 17.484-10.969 34.641-26.531 42.609-5.9062 3-8.2031 10.266-5.2031 16.125 2.1094 4.125 6.3281 6.5156 10.688 6.5156 1.8281 0 3.7031-0.42188 5.4375-1.3125 9.0469-4.6406 16.875-11.203 23.156-18.984 12.891 5.3906 26.672 8.25 40.5 8.25 18.094 0 36.188-4.5469 52.078-13.641zm234.24 71.156c-5.9531-2.9531-13.125-0.46875-16.078 5.4375-6.75 13.594-18.703 24.609-32.812 30.234-6.1406 2.4375-9.1406 9.4219-6.7031 15.562 1.875 4.6875 6.375 7.5469 11.156 7.5469 1.4531 0 2.9531-0.28125 4.4062-0.84375 19.547-7.7812 36.094-23.016 45.469-41.859 2.9531-5.9531 0.51562-13.125-5.4375-16.078z"/>
</svg>
