<?xml version="1.0" encoding="UTF-8"?>
<svg width="1200pt" height="1200pt" version="1.1" viewBox="0 0 1200 1200" xmlns="http://www.w3.org/2000/svg">
 <path d="m630.56 403.64c2.3906-9.6562 12.188-15.516 21.797-13.125 9.6562 2.4375 15.516 12.234 13.125 21.844l-96 384c-2.4375 9.6562-12.188 15.516-21.844 13.078-9.6562-2.3906-15.516-12.188-13.078-21.797z"/>
 <path d="m460.13 474.42c7.0312-6.9844 18.422-7.0312 25.453 0s7.0312 18.469 0 25.453l-100.12 100.12 100.12 100.12c7.0312 7.0312 7.0312 18.422 0 25.453s-18.422 7.0312-25.453 0l-112.83-112.83c-7.0312-7.0312-7.0312-18.469 0-25.5z"/>
 <path d="m714.47 474.42c7.0312-6.9844 18.422-6.9844 25.453 0l112.83 112.83c7.0312 7.0312 7.0312 18.422 0 25.453l-112.83 112.88c-7.0312 7.0312-18.422 7.0312-25.453 0s-7.0312-18.422 0-25.453l100.08-100.12-100.08-100.12c-7.0312-7.0312-7.0312-18.422 0-25.453z"/>
</svg>
