<?xml version="1.0" encoding="UTF-8"?>
<svg width="1200pt" height="1200pt" version="1.1" viewBox="0 0 1200 1200" xmlns="http://www.w3.org/2000/svg">
 <path d="m266.66 88.418h694.23c15.227 0 27.539 12.348 27.539 27.578 0 6.9492-2.5547 13.285-6.7695 18.109l-170.82 241.31 172.44 243.58c8.75 12.348 5.7969 29.484-6.5898 38.23-4.7891 3.3828-10.332 5.0391-15.805 5.0039v0.14453h-694.23v498.1c0 15.227-12.348 27.578-27.578 27.578-15.227 0-27.539-12.348-27.539-27.578v-1120.9c0-15.227 12.348-27.578 27.539-27.578 15.227 0 27.578 12.348 27.578 27.578v48.852zm641.09 55.117h-641.09v463.68h641.13l-152.61-215.54c-6.8398-9.2539-7.3438-22.211-0.32422-32.148l152.93-216z"/>
</svg>
