<?xml version="1.0" encoding="UTF-8"?>
<svg width="1200pt" height="1200pt" version="1.1" viewBox="0 0 1200 1200" xmlns="http://www.w3.org/2000/svg">
 <path d="m589.22 68.391c21.609-8.3906 48-2.3906 63.609 15.609 10.781 14.391 15.609 32.391 22.781 48 33.609-4.7812 67.219-4.7812 100.78 0 4.7812-12 9.6094-25.219 15.609-37.219 9.6094-19.219 28.781-31.219 50.391-31.219 16.781 0 31.219 8.3906 45.609 14.391 13.219 6 26.391 9.6094 38.391 16.781 21.609 12 31.219 39.609 24 63.609-4.7812 13.219-10.781 26.391-15.609 39.609 25.219 19.219 48 40.781 67.219 66 1.2188 1.2188 3.6094 6 6 3.6094 19.219-7.2188 38.391-19.219 60-16.781 22.781 2.3906 40.781 19.219 48 40.781 8.3906 22.781 21.609 43.219 24 67.219v3.6094c-1.2188 19.219-12 38.391-30 48-12 6-25.219 10.781-38.391 16.781 4.7812 33.609 4.7812 67.219 0 100.78 18 8.3906 38.391 13.219 52.781 27.609 9.6094 9.6094 14.391 22.781 15.609 36v4.7812c-1.2188 15.609-9.6094 30-14.391 44.391-6 12-9.6094 25.219-16.781 37.219-12 20.391-39.609 31.219-63.609 24-13.219-4.7812-26.391-10.781-39.609-15.609-20.391 26.391-44.391 50.391-70.781 70.781 6 15.609 15.609 31.219 18 48 3.6094 24-12 49.219-34.781 58.781-19.219 8.3906-38.391 15.609-57.609 22.781-26.391 9.6094-57.609-3.6094-69.609-28.781-7.2188-14.391-12-30-19.219-44.391-2.3906-7.2188-6-14.391-3.6094-21.609 2.3906-10.781 14.391-18 25.219-15.609 7.2188 1.2188 13.219 7.2188 15.609 14.391 7.2188 15.609 13.219 32.391 20.391 48 2.3906 6 9.6094 10.781 16.781 7.2188 15.609-6 31.219-13.219 46.781-19.219 4.7812-2.3906 12-4.7812 14.391-10.781 2.3906-4.7812 0-9.6094-1.2188-14.391-6-13.219-10.781-26.391-16.781-39.609-1.1719-4.6875-3.5625-10.688-1.1719-17.906s9.6094-12 15.609-16.781c28.781-19.219 52.781-44.391 73.219-73.219 4.7812-6 9.6094-13.219 16.781-14.391 6-2.3906 13.219 0 19.219 2.3906 14.391 6 28.781 12 43.219 18 4.7812 2.3906 10.781 2.3906 15.609-1.2188 3.6094-4.7812 6-9.6094 8.3906-15.609 6-14.391 12-28.781 18-43.219 2.3906-7.2188-1.2188-14.391-7.2188-16.781-15.609-7.2188-31.219-13.219-46.781-19.219-4.7812-2.3906-9.6094-6-13.219-10.781-4.7812-7.2188-2.3906-16.781-1.2188-24 4.7812-26.391 4.7812-54 2.3906-80.391-1.2188-10.781-3.6094-22.781-4.7812-33.609 0-8.3906 4.7812-15.609 13.219-19.219 16.781-7.2188 33.609-13.219 50.391-21.609 7.2188-2.3906 9.6094-12 6-18-7.2188-16.781-14.391-33.609-21.609-50.391-2.3906-6-9.6094-12-16.781-8.3906-14.438 3.6562-26.438 9.6562-39.656 14.438-8.3906 3.6094-16.781 8.3906-26.391 4.7812-8.3906-2.3906-13.219-10.781-18-18-15.609-21.609-34.781-42-55.219-58.781-8.3906-7.2188-18-12-25.219-19.219-7.2188-6-8.3906-16.781-4.7812-25.219 6-14.391 12-30 18-44.391 1.2188-4.7812 3.6094-9.6094 1.2188-13.219-2.3906-4.7812-7.2188-7.2188-12-9.6094-14.391-6-28.781-12-43.219-18-4.7812-2.3906-9.6094-4.7812-15.609-2.3906-4.7812 1.2188-7.2188 7.2188-9.6094 10.781-6 13.219-10.781 26.391-16.781 40.781-2.3906 6-6 12-12 15.609-8.3906 4.7812-18 2.3906-26.391 1.2188-26.391-4.7812-54-4.7812-80.391-2.3906-10.781 1.2188-20.391 3.6094-31.219 3.6094-8.3906 0-16.781-4.7812-20.391-13.219-7.2188-16.781-13.219-33.609-21.609-50.391-2.3906-6-10.781-9.6094-16.781-6-18 7.2188-34.781 14.391-52.781 21.609-7.2188 2.3906-10.781 10.781-8.3906 16.781 6 16.781 14.391 32.391 20.391 49.219 2.3906 7.2188 2.3906 15.609-3.6094 21.609-4.7812 4.7812-9.6094 8.3906-15.609 12-19.219 13.219-36 28.781-50.391 46.781-6 12.047-12 24.047-21.609 34.828-6 7.2188-16.781 9.6094-25.219 6-15.609-6-30-12-45.609-19.219-3.6094-1.2188-8.3906-3.6094-13.219-1.2188-4.7812 1.2188-7.2188 7.2188-9.6094 12-6 14.391-12 28.781-18 43.219-2.3906 4.7812-4.7812 10.781-2.3906 15.609 2.3906 6 9.6094 7.2188 15.609 9.6094 14.391 6 28.781 10.781 43.219 18 12 6 15.609 24 4.7812 33.609-6 7.2188-18 8.3906-26.391 3.6094-16.781-7.2188-32.391-13.219-49.219-20.391-19.219-8.3906-32.391-28.781-32.391-49.219-1.2188-16.781 8.3906-32.391 14.391-46.781 6-13.219 9.6094-26.391 16.781-38.391 12-21.609 40.781-32.391 63.609-24 13.219 4.7812 26.391 10.781 38.391 15.609 20.391-26.391 44.391-50.391 70.781-70.781-6-16.781-16.781-33.609-18-52.781-1.2188-22.781 12-45.609 33.609-54 20.484-7.2656 39.703-14.484 57.703-22.875zm120 234c37.219-3.6094 75.609 4.7812 108 24 36 21.609 64.781 56.391 78 97.219 14.391 42 10.781 90-8.3906 130.78-28.781 61.219-94.781 104.39-162 102-12-1.2188-21.609-14.391-18-26.391 2.3906-10.781 13.219-18 24-16.781 52.781-1.2188 102-37.219 120-86.391 9.6094-26.391 12-55.219 4.7812-81.609-8.3906-32.391-30-62.391-60-80.391-25.219-15.609-56.391-22.781-86.391-18-32.391 3.6094-62.391 20.391-84 44.391-20.391 22.781-32.391 51.609-33.609 81.609 0 7.2188 0 15.609-4.7812 21.609-7.2188 10.781-25.219 10.781-33.609 1.2188-6-6-6-15.609-4.7812-24 2.3906-40.781 18-80.391 45.609-110.39 29.953-34.875 71.953-55.266 115.17-58.875zm-397.22 234c2.3906-20.391 19.219-37.219 39.609-39.609 9.6094-1.2188 20.391-1.2188 30-1.2188 10.781 0 21.609-1.2188 31.219 1.2188 18 4.7812 32.391 20.391 34.781 38.391 1.2188 9.6094 0 19.219 1.2188 28.781 21.609 6 40.781 14.391 60 25.219 7.2188-6 13.219-13.219 20.391-19.219 14.391-10.781 34.781-13.219 50.391-4.7812 9.6094 4.7812 16.781 14.391 25.219 21.609 7.2188 7.2188 15.609 14.391 21.609 22.781 12 15.609 12 37.219 1.2188 54-6 8.3906-14.391 15.609-21.609 22.781 10.781 19.219 19.219 39.609 25.219 60 10.781 0 20.391-1.2188 31.219 1.2188 19.219 3.6094 36 21.609 37.219 40.781 1.2188 15.609 0 31.219 0 46.781 0 18-10.781 34.781-26.391 43.219-13.219 7.2188-28.781 4.7812-42 4.7812-6 21.609-14.391 40.781-25.219 60 7.2188 7.2188 14.391 14.391 20.391 21.609 10.781 15.609 10.781 38.391 0 52.781-6 8.3906-13.219 14.391-20.391 21.609-7.2188 7.2188-14.391 15.609-22.781 21.609-15.609 9.6094-37.219 9.6094-51.609-1.2188-8.3906-6-14.391-13.219-21.609-20.391-19.219 10.781-39.609 19.219-60 25.219v27.609c-2.3906 16.781-13.219 31.219-28.781 37.219-13.219 4.7812-26.391 3.6094-39.609 3.6094-12 0-24 1.2188-36-2.3906-16.781-6-28.781-21.609-31.219-38.391-1.2188-9.6094 0-18-1.2188-27.609-21.609-6-40.781-14.391-60-25.219-9.6094 9.6094-19.219 21.609-32.391 26.391-16.781 6-37.219 1.2188-49.219-10.781-10.781-10.781-21.609-20.391-31.219-31.219-13.219-14.391-15.609-36-7.2188-52.781 6-10.781 15.609-19.219 24-27.609-10.781-19.219-19.219-39.609-25.219-60-14.391 0-30 2.3906-43.219-6-14.391-7.2188-24-22.781-25.219-39.609l0.046875-45.562c1.2188-16.781 10.781-32.391 26.391-39.609 13.219-7.2188 28.781-4.7812 43.219-4.7812 6-21.609 14.391-42 25.219-60-9.6094-9.6094-21.609-19.219-26.391-32.391-6-16.781-2.3906-37.219 10.781-49.219 10.781-10.781 20.391-21.609 31.219-31.219 14.391-13.219 37.219-15.609 54-7.2188 10.781 6 18 15.609 26.391 24 19.219-10.781 39.609-19.219 60-25.219-3.6562-10.734-3.6562-20.344-2.4375-29.953m43.219 7.2188c-1.2188 14.391 1.2188 28.781-1.2188 43.219-1.2188 9.6094-9.6094 16.781-19.219 19.219-20.391 4.7812-40.781 12-60 22.781-7.2188 3.6094-13.219 8.3906-20.391 12-7.2188 2.3906-15.609 1.2188-21.609-4.7812-9.6094-9.6094-19.219-20.391-28.781-28.781h-2.3906c-12 10.781-22.781 21.609-33.609 33.609 8.3906 10.781 20.391 20.391 30 31.219 6 6 7.2188 15.609 3.6094 24-4.7812 9.6094-10.781 18-15.609 27.609-8.3906 16.781-14.391 33.609-18 51.609-1.2188 9.6094-9.6094 18-19.219 19.219-13.219 1.2188-27.609 0-40.781 0-1.2188 0-2.3906 1.2188-2.3906 1.2188-1.2188 15.609-1.2188 31.219 0 45.609l2.3906 2.3906c14.391 1.2188 30-1.2188 44.391 1.2188 9.6094 1.2188 15.609 10.781 18 20.391 4.7812 20.391 12 39.609 21.609 57.609 3.6094 7.2188 8.3906 13.219 12 20.391 3.6094 7.2188 1.2188 16.781-3.6094 22.781-8.3906 9.6094-19.219 19.219-28.781 28.781-3.6094 2.3906 0 6 2.3906 7.2188l25.219 25.219c1.2188 1.2188 4.7812 4.7812 7.2188 1.2188 9.6094-8.3906 18-18 26.391-26.391 8.3906-9.6094 24-8.3906 33.609 0 21.609 13.219 45.609 22.781 69.609 28.781 8.3906 1.2188 16.781 7.2188 19.219 15.609 3.6094 15.609-1.2188 32.391 2.3906 48 6 2.3906 13.219 0 20.391 1.2188 8.3906 0 18 1.2188 27.609-1.2188 3.6094-15.609-1.2188-32.391 2.3906-48 2.3906-9.6094 12-14.391 20.391-15.609 20.391-4.7812 39.609-12 57.609-21.609 6-3.6094 12-8.3906 19.219-10.781 7.2188-3.6094 16.781-2.3906 22.781 3.6094 10.781 9.6094 20.391 21.609 32.391 30 9.6094-8.3906 19.219-19.219 28.781-27.609 1.2188-2.3906 4.7812-3.6094 4.7812-7.2188-8.3906-10.781-19.219-19.219-28.781-30-4.7812-6-7.2188-14.391-4.7812-21.609 2.3906-4.7812 4.7812-9.6094 8.3906-14.391 13.219-20.391 20.391-43.219 26.391-67.219 1.2188-8.3906 8.3906-16.781 18-18 14.391-1.2188 28.781 0 43.219-1.2188 3.6094 0 2.3906-6 3.6094-8.3906-1.2188-13.219 1.2188-26.391-1.2188-39.609-15.609-2.3906-31.219 1.2188-46.781-1.2188-9.6094-1.2188-15.609-10.781-16.781-19.219-4.7812-21.609-12-42-22.781-61.219-3.6094-6-7.2188-12-10.781-19.219-2.3906-7.2188-1.2188-15.609 4.7812-21.609 9.6094-10.781 19.219-19.219 28.781-30v-2.3906c-10.781-12-21.609-22.781-32.391-33.609-12 8.3906-20.391 21.609-32.391 31.219-6 4.7812-15.609 6-22.781 2.3906-6-2.3906-12-7.2188-18-9.6094-19.219-10.781-39.609-18-61.219-22.781-8.3906-1.2188-18-8.3906-19.219-16.781-2.3906-15.609 1.2188-31.219-1.2188-46.781-13.219-2.3906-26.391 0-39.609-1.2188-7.2188-4.875-13.219-6.0938-13.219-1.2656zm3.5625 144c25.219-3.6094 51.609 0 75.609 10.781 31.219 14.391 56.391 42 67.219 74.391 9.6094 27.609 9.6094 58.781 0 87.609-10.781 31.219-33.609 56.391-63.609 72-28.781 14.391-62.391 18-93.609 9.6094s-58.781-30-75.609-57.609c-14.391-22.781-20.391-51.609-18-78 2.3906-32.391 18-62.391 42-84 18-19.172 40.828-30 66-34.781m2.4375 44.391c-36 7.2188-64.781 40.781-67.219 78-2.3906 26.391 9.6094 54 30 70.781 16.781 14.391 39.609 21.609 62.391 19.219 28.781-2.3906 56.391-20.391 69.609-46.781 9.6094-19.219 12-40.781 6-61.219-6-22.781-21.609-42-43.219-52.781-16.781-8.4375-38.391-10.828-57.562-7.2188z"/>
</svg>
