<?xml version="1.0" encoding="UTF-8"?>
<svg width="1200pt" height="1200pt" version="1.1" viewBox="0 0 1200 1200" xmlns="http://www.w3.org/2000/svg">
 <path d="m377.72 466.69c4.7344 0 9.2344 1.9688 12.422 5.4844l105 116.67c5.6719 6.3281 5.6719 15.984 0 22.312l-105 116.67c-3.1875 3.5156-7.6875 5.4844-12.422 5.4844h-161.06c-9.1875 0-16.641-7.4531-16.641-16.641v-233.34c0-9.1875 7.4531-16.641 16.641-16.641z"/>
 <path d="m66.656 266.68c-18.422 0-33.328 14.906-33.328 33.328s14.906 33.328 33.328 33.328h33.328v566.68c0 18.422 14.953 33.328 33.328 33.328 18.422 0 33.375-14.906 33.375-33.328v-66.656h220.64c29.203 0 56.953-12.75 75.938-34.922l122.9-143.39c11.812-13.781 29.016-21.703 47.156-21.703s35.391 7.9219 47.156 21.703l122.9 143.39c19.031 22.172 46.734 34.922 75.938 34.922h237.32c27.609 0 50.016-22.406 50.016-50.016v-366.66c0-27.609-22.406-50.016-50.016-50.016h-237.32c-29.203 0-56.906 12.75-75.938 34.922l-122.9 143.39c-11.766 13.781-29.016 21.703-47.156 21.703s-35.344-7.9219-47.156-21.703l-122.9-143.39c-18.984-22.172-46.734-34.922-75.938-34.922h-220.64v-66.656c0-18.422-14.953-33.328-33.375-33.328zm133.36 500.02c-18.422 0-33.328-14.953-33.328-33.375v-266.63c0-18.422 14.906-33.375 33.328-33.375h185.16c9.4219 0 18.422 4.0312 24.75 11.062l120 133.31c11.438 12.703 11.438 31.922 0 44.625l-120 133.31c-6.3281 7.0312-15.328 11.062-24.75 11.062zm890.21-110.3c6.3281-17.625 9.7969-36.609 9.7969-56.391 0-25.969-5.9531-50.531-16.547-72.469-4.7812 10.219-10.641 19.781-17.062 28.594-20.344 28.031-47.719 50.531-69.703 64.734-3 9-7.8281 17.203-14.109 24.047 17.484 7.0312 38.062 13.078 58.781 15.281 17.344 1.8281 33.938 0.9375 48.844-3.7969zm-19.125 37.406c-11.156 0.98438-22.406 0.70312-33.234-0.46875-34.453-3.6562-67.641-16.078-90.891-28.031-4.4062 0.89062-8.9531 1.3594-13.641 1.3594-4.875 0-9.6562-0.51562-14.25-1.5 2.625 18.609 7.6875 39.469 16.172 58.5 7.0781 15.938 16.125 29.859 27.703 40.406 44.812-8.0625 83.438-34.031 108.14-70.266zm-150.1 72.422c-6.4219-9.2344-11.812-19.078-16.219-29.016-14.109-31.688-19.922-66.656-21.188-92.812-6.1875-6.8906-10.922-15.141-13.828-24.188-14.812 11.625-30.328 26.438-42.562 43.266-10.266 14.062-17.766 28.922-21.141 44.156 28.078 33.188 68.906 55.219 114.94 58.594zm-137.81-93.797c-10.594-21.891-16.5-46.453-16.5-72.422 0-19.781 3.4219-38.766 9.75-56.391 14.906-4.7344 31.5-5.625 48.844-3.7969 20.719 2.2031 41.297 8.25 58.781 15.281-6.2344 6.8438-11.109 15.047-14.062 24.047-21.984 14.203-49.359 36.703-69.75 64.734-6.4219 8.8125-12.281 18.375-17.062 28.547zm12.375-166.22c11.203-0.98438 22.406-0.70312 33.234 0.46875 34.453 3.6562 67.641 16.078 90.938 28.078 4.3594-0.9375 8.9531-1.4062 13.594-1.4062 4.9219 0 9.6562 0.51562 14.297 1.5-2.6719-18.609-7.7344-39.469-16.172-58.5-7.0781-15.938-16.172-29.859-27.703-40.406-44.859 8.0625-83.484 34.031-108.19 70.266zm150.14-72.422c6.4219 9.2344 11.766 19.078 16.172 29.016 14.109 31.688 19.922 66.656 21.188 92.812 6.1875 6.8906 10.922 15.141 13.828 24.188 14.812-11.625 30.328-26.438 42.562-43.266 10.266-14.062 17.812-28.922 21.141-44.156-28.078-33.188-68.906-55.219-114.89-58.594zm20.953 166.22c0 18.422-14.906 33.328-33.328 33.328s-33.328-14.906-33.328-33.328 14.906-33.328 33.328-33.328 33.328 14.906 33.328 33.328z" fill-rule="evenodd"/>
 <path d="m778.74 379.18c4.0312-4.6406 0.89062-12.516-5.25-12.516h-280.31c-6.1406 0-9.2344 7.875-5.2031 12.516l0.60938 0.70312 15.234 17.812c1.2656 1.4531 3.0938 2.2969 5.0625 2.2969h248.9c1.9688 0 3.7969-0.84375 5.0625-2.2969l15.234-17.812z"/>
 <path d="m606 699.98c-5.6719 0-8.7656-6.6562-5.0625-10.969l10.547-12.281c5.4844-6.375 13.453-10.078 21.844-10.078s16.406 3.7031 21.844 10.078l10.547 12.281c3.7031 4.3125 0.60938 10.969-5.0625 10.969z"/>
 <path d="m543.79 755.68c-3.7031 4.3125-0.60938 11.016 5.0625 11.016h168.94c5.6719 0 8.7656-6.7031 5.0625-11.016l-17.156-20.016c-1.2656-1.4531-3.0938-2.3438-5.0625-2.3438h-134.63c-1.9688 0-3.7969 0.89062-5.0625 2.3438z"/>
 <path d="m487.97 820.82c-4.0312 4.6406-0.9375 12.516 5.2031 12.516h280.31c6.1406 0 9.2812-7.875 5.25-12.516l-0.65625-0.70312-15.234-17.812c-1.2656-1.4531-3.0938-2.2969-5.0625-2.2969h-248.9c-1.9688 0-3.7969 0.84375-5.0625 2.2969l-15.234 17.812z"/>
 <path d="m717.79 433.31c5.6719 0 8.7656 6.7031 5.0625 11.016l-17.156 20.016c-1.2656 1.4531-3.0938 2.3438-5.0625 2.3438h-134.63c-1.9688 0-3.7969-0.89062-5.0625-2.3438l-17.156-20.016c-3.7031-4.3125-0.60937-11.016 5.0625-11.016z"/>
 <path d="m665.72 510.98c3.7031-4.3125 0.60938-10.969-5.0625-10.969h-54.656c-5.6719 0-8.7656 6.6562-5.0625 10.969l10.547 12.281c5.4844 6.375 13.453 10.078 21.844 10.078s16.406-3.7031 21.844-10.078z"/>
</svg>
