<?xml version="1.0" encoding="UTF-8"?>
<svg width="1200pt" height="1200pt" version="1.1" viewBox="0 0 1200 1200" xmlns="http://www.w3.org/2000/svg">
 <path d="m286.95 723.98c3.9062 3.9062 9.0234 5.8594 14.141 5.8594s10.234-1.9531 14.141-5.8594l68.953-68.953c7.8125-7.8125 7.8125-20.469 0-28.281l-8.5547-8.5664 20.285-20.293 8.5664 8.5664c7.8125 7.8125 20.469 7.8125 28.281 0l23.039-23.039 473.98 473.98c18.836 18.836 43.879 29.207 70.508 29.207 26.629 0 51.672-10.371 70.508-29.207 18.832-18.84 29.203-43.879 29.203-70.512s-10.371-51.672-29.207-70.508l-473.98-473.98 5.6445-5.6445c4.9883-4.9883 6.9844-12.246 5.2344-19.082-12.793-50.156-7.3047-90.938 16.309-121.19 51.848-66.406 174.47-67.051 177.33-67.051 0.078124-0.011719 0.097656 0 0.13672 0 7.5703 0 14.504-4.2773 17.891-11.047 3.4102-6.8047 2.668-14.953-1.9141-21.016-37.07-49.043-94.648-78.621-162.12-83.293-88.496-6.2227-180.39 31.445-252.05 103.11l-179.89 179.89c-7.8125 7.8125-7.8125 20.469 0 28.281l8.5547 8.5547-20.285 20.293-8.5664-8.5547c-7.8125-7.8125-20.469-7.8125-28.281 0l-68.953 68.953c-7.8125 7.8125-7.8125 20.469 0 28.281zm755.56 220.67c23.281 23.281 23.281 61.172 0 84.453s-61.172 23.281-84.453 0l-473.98-473.97 84.453-84.453zm-853.56-456.58 8.5664 8.5547c7.8125 7.8125 20.469 7.8125 28.281 0l48.566-48.574c7.8125-7.8125 7.8125-20.469 0-28.281l-8.5547-8.5547 165.75-165.75c63.457-63.477 143.98-96.902 221.01-91.484 40.586 2.8008 76.66 16.277 104.84 38.703-47.727 6.3086-122.42 24.832-164.84 79.062-29.805 38.105-38.621 86.707-26.262 144.6l-147.69 147.69-8.5664-8.5664c-7.5-7.5-20.781-7.5-28.281 0l-48.566 48.574c-7.8125 7.8125-7.8125 20.469 0 28.281l8.5547 8.5664-40.672 40.672-152.81-152.81z"/>
</svg>
