<?xml version="1.0" encoding="UTF-8"?>
<svg width="1200pt" height="1200pt" version="1.1" viewBox="0 0 1200 1200" xmlns="http://www.w3.org/2000/svg">
 <path d="m912.14 772.78h-624.28c-34.781 0-63.234 28.312-63.234 63.234v300.84c0 34.781 28.312 63.234 63.234 63.234h624.24c34.781 0 63.234-28.312 63.234-63.234v-300.84c0-34.781-28.312-63.234-63.234-63.234zm14.297 364.08c0 7.9219-6.375 14.297-14.297 14.297h-624.28c-7.9219 0-14.297-6.375-14.297-14.297v-300.84c0-7.9219 6.375-14.297 14.297-14.297h624.24c7.9219 0 14.297 6.375 14.297 14.297v300.84zm-194.86-766.22c-41.062 0-74.531 33.469-74.531 74.531s33.469 74.531 74.531 74.531 74.531-33.469 74.531-74.531-33.469-74.531-74.531-74.531zm0 100.08c-14.156 0-25.547-11.531-25.547-25.547 0-14.062 11.531-25.547 25.547-25.547 14.062 0 25.547 11.531 25.547 25.547 0 14.062-11.531 25.547-25.547 25.547zm-188.39-25.547c0-41.062-33.469-74.531-74.531-74.531s-74.531 33.469-74.531 74.531 33.469 74.531 74.531 74.531 74.531-33.469 74.531-74.531zm-100.08 0c0-14.156 11.531-25.547 25.547-25.547 14.062 0 25.547 11.531 25.547 25.547 0 14.062-11.531 25.547-25.547 25.547-14.062 0-25.547-11.531-25.547-25.547zm298.69 175.45c0 13.547-10.922 24.469-24.469 24.469h-234.14c-13.547 0-24.469-10.922-24.469-24.469 0-13.547 10.922-24.469 24.469-24.469h234.14c13.547 0 24.469 10.922 24.469 24.469zm283.31-276-92.531-13.922v-36.703c0-35.625-28.922-64.547-64.547-64.547h-243.37v-22.219c46.219-11.062 80.625-52.547 80.625-102.14 0-57.938-47.156-105.14-105.14-105.14-57.938 0-105.14 47.156-105.14 105.14 0 49.547 34.453 91.078 80.625 102.14v22.219h-243.24c-35.625 0-64.547 28.922-64.547 64.547v36.703l-92.531 13.922c-12 1.7812-20.766 12.141-20.766 24.234v203.29c0 12.141 8.8594 22.453 20.766 24.234l92.531 13.922v65.062c0 35.625 28.922 64.547 64.547 64.547h535.55c35.625 0 64.547-28.922 64.547-64.547v-65.062l92.531-13.922c12-1.7812 20.766-12.141 20.766-24.234v-203.29c0-12.141-8.8594-22.453-20.766-24.234zm-481.26-239.48c0-30.938 25.219-56.156 56.156-56.156s56.156 25.219 56.156 56.156-25.219 56.156-56.156 56.156-56.156-25.219-56.156-56.156zm-340.55 445.92v-161.16l64.453-9.7031v180.61l-64.453-9.7031zm680.16 124.22c0 8.625-6.9375 15.609-15.609 15.609l-535.55-0.046875c-8.625 0-15.609-6.9375-15.609-15.609v-381.24c0-8.625 6.9375-15.609 15.609-15.609h535.55c8.625 0 15.609 6.9375 15.609 15.609zm113.39-124.22-64.453 9.7031v-180.61l64.453 9.7031zm-513.47 435.37c0 25.922-21 46.922-46.922 46.922s-46.922-21-46.922-46.922 21-46.922 46.922-46.922 46.922 21 46.922 46.922zm351.84 0c0 13.547-10.922 24.469-24.469 24.469h-262.69c-13.547 0-24.469-10.922-24.469-24.469s10.922-24.469 24.469-24.469h262.69c13.547 0 24.469 10.922 24.469 24.469z"/>
</svg>
