<?xml version="1.0" encoding="UTF-8"?>
<svg width="1200pt" height="1200pt" version="1.1" viewBox="0 0 1200 1200" xmlns="http://www.w3.org/2000/svg">
 <path d="m454.92 712.08c18.234 0 33 14.766 33 33v105.47l-0.046875 1.6875c-0.84375 16.875-14.391 30.375-31.219 31.219l-1.7344 0.046875h-105.47c-17.625 0-32.062-13.828-32.906-31.266l-0.046875-1.6875v-105.47c0-18.234 14.766-33 32.953-33zm-98.859 131.86h92.297v-92.297h-92.297z" fill-rule="evenodd"/>
 <path d="m652.74 712.08c18.234 0 33 14.766 33 33v105.47l-0.046875 1.6875c-0.89062 16.875-14.391 30.375-31.266 31.219l-1.6875 0.046875h-105.47c-17.672 0-32.062-13.828-32.953-31.266l-0.046875-1.6875v-105.47c0-18.234 14.766-33 33-33zm-98.906 131.86h92.344v-92.297h-92.344z" fill-rule="evenodd"/>
 <path d="m850.55 712.08c18.188 0 32.953 14.766 32.953 33v105.47l-0.046875 1.6875c-0.84375 16.875-14.344 30.375-31.219 31.219l-1.6875 0.046875h-105.47c-17.672 0-32.062-13.828-32.953-31.266l-0.046875-1.6875v-105.47c0-18.234 14.766-33 33-33zm-98.906 131.86h92.297v-92.297h-92.297z" fill-rule="evenodd"/>
 <path d="m454.92 514.26c18.234 0 33 14.766 33 33v105.47l-0.046875 1.6875c-0.89062 17.438-15.281 31.312-32.953 31.312h-105.47c-17.625 0-32.062-13.875-32.906-31.312l-0.046875-1.6875v-105.47c0-18.234 14.766-33 32.953-33zm-98.859 131.9h92.297v-92.344h-92.297z" fill-rule="evenodd"/>
 <path d="m652.74 514.26c18.234 0 33 14.766 33 33v105.47l-0.046875 1.6875c-0.89062 17.438-15.281 31.312-32.953 31.312h-105.47c-17.672 0-32.062-13.875-32.953-31.312l-0.046875-1.6875v-105.47c0-18.234 14.766-33 33-33zm-98.906 131.9h92.344v-92.344h-92.344z" fill-rule="evenodd"/>
 <path d="m850.55 514.26c18.188 0 32.953 14.766 32.953 33v105.47l-0.046875 1.6875c-0.84375 17.438-15.281 31.312-32.906 31.312h-105.47c-17.672 0-32.062-13.875-32.953-31.312l-0.046875-1.6875v-105.47c0-18.234 14.766-33 33-33zm-98.906 131.9h92.297v-92.344h-92.297z" fill-rule="evenodd"/>
 <path d="m456.66 316.55c17.391 0.84375 31.266 15.281 31.266 32.906v105.47l-0.046875 1.7344c-0.89062 17.391-15.281 31.266-32.953 31.266h-105.47c-17.625 0-32.062-13.875-32.906-31.266l-0.046875-1.7344v-105.47c0-18.188 14.766-32.953 32.953-32.953h105.47zm-100.59 131.81h92.297v-92.297h-92.297z" fill-rule="evenodd"/>
 <path d="m654.42 316.55c17.438 0.84375 31.312 15.281 31.312 32.906v105.47l-0.046875 1.7344c-0.89062 17.391-15.281 31.266-32.953 31.266h-105.47c-17.672 0-32.062-13.875-32.953-31.266l-0.046875-1.7344v-105.47c0-18.188 14.766-32.953 33-32.953h105.47zm-100.59 131.81h92.344v-92.297h-92.344z" fill-rule="evenodd"/>
 <path d="m852.24 316.55c17.438 0.84375 31.266 15.281 31.266 32.906v105.47l-0.046875 1.7344c-0.84375 17.391-15.281 31.266-32.906 31.266h-105.47c-17.672 0-32.062-13.875-32.953-31.266l-0.046875-1.7344v-105.47c0-18.188 14.766-32.953 33-32.953h105.47zm-100.59 131.81h92.297v-92.297h-92.297z" fill-rule="evenodd"/>
 <path d="m817.6 125.29c10.922 0 19.781 8.8125 19.781 19.781v79.078h65.906c40.078 0 72.562 32.484 72.562 72.562v65.906h79.078c10.969 0 19.781 8.8594 19.781 19.781s-8.8125 19.781-19.781 19.781h-79.078v105.52h79.078c10.969 0 19.781 8.8594 19.781 19.781s-8.8125 19.781-19.781 19.781h-79.078v105.47h79.078c10.969 0 19.781 8.8594 19.781 19.781s-8.8125 19.781-19.781 19.781h-79.078v105.52h79.078c10.969 0 19.781 8.8594 19.781 19.781s-8.8125 19.781-19.781 19.781h-79.078v65.906c0 40.078-32.484 72.562-72.562 72.562h-65.906v79.078c0 10.969-8.8594 19.781-19.781 19.781s-19.781-8.8125-19.781-19.781v-79.078h-105.52v79.078c0 10.969-8.8594 19.781-19.781 19.781s-19.781-8.8125-19.781-19.781v-79.078h-105.47v79.078c0 10.969-8.8594 19.781-19.781 19.781s-19.781-8.8125-19.781-19.781v-79.078h-105.52v79.078c0 10.969-8.8594 19.781-19.781 19.781s-19.781-8.8125-19.781-19.781v-79.078h-65.906c-40.078 0-72.562-32.484-72.562-72.562v-65.906h-79.078c-10.969 0-19.781-8.8594-19.781-19.781s8.8125-19.781 19.781-19.781h79.078v-105.52h-79.078c-10.969 0-19.781-8.8594-19.781-19.781s8.8125-19.781 19.781-19.781h79.078v-105.47h-79.078c-10.969 0-19.781-8.8594-19.781-19.781s8.8125-19.781 19.781-19.781h79.078v-105.52h-79.078c-10.969 0-19.781-8.8594-19.781-19.781s8.8125-19.781 19.781-19.781h79.078v-65.906c0-40.078 32.484-72.562 72.562-72.562h65.906v-79.078c0-10.969 8.8594-19.781 19.781-19.781s19.781 8.8125 19.781 19.781v79.078h105.52v-79.078c0-10.969 8.8594-19.781 19.781-19.781s19.781 8.8125 19.781 19.781v79.078h105.47v-79.078c0-10.969 8.8594-19.781 19.781-19.781s19.781 8.8125 19.781 19.781v79.078h105.52v-79.078c0-10.969 8.8594-19.781 19.781-19.781zm-520.87 138.42c-18.234 0-33 14.766-33 33v606.56c0 18.234 14.766 33 33 33h606.56c18.234 0 33-14.766 33-33v-606.56c0-18.234-14.766-33-33-33z" fill-rule="evenodd"/>
</svg>
