<svg xmlns="http://www.w3.org/2000/svg" width="1000" height="380" viewBox="0 0 1000 380">
  <rect width="1000" height="380" fill="#f7f4ec"/>
  <text x="90" y="28" font-size="18" font-family="monospace" fill="#17212b">SWE-ZERO per-rollout time budget — avg of 6667 real rollouts (shard 53)</text>
  <text x="90" y="48" font-size="13" font-family="monospace" fill="#425466">Total 275s/rollout. Fleet: 130 workers × concurrency 64 → ~108954 rollouts/hr → 4.7 days to 12.3M target</text>
  <rect x="90.0" y="85" width="744.8" height="90" fill="#126e82" stroke="#222" stroke-width="0.5"/><text x="462.4" y="135.0" text-anchor="middle" font-size="14" fill="white" font-family="monospace">llm 85%</text><rect x="834.8" y="85" width="118.3" height="90" fill="#2c8f3a" stroke="#222" stroke-width="0.5"/><text x="893.9" y="135.0" text-anchor="middle" font-size="14" fill="white" font-family="monospace">exec 13%</text><rect x="953.1" y="85" width="12.8" height="90" fill="#d17b0f" stroke="#222" stroke-width="0.5"/><rect x="965.9" y="85" width="4.1" height="90" fill="#7a5cb3" stroke="#222" stroke-width="0.5"/>
  <line x1="90.0" y1="175" x2="90.0" y2="180" stroke="#506274"/><text x="90.0" y="193" text-anchor="middle" font-size="11" fill="#425466">0s</text><line x1="250.1" y1="175" x2="250.1" y2="180" stroke="#506274"/><text x="250.1" y="193" text-anchor="middle" font-size="11" fill="#425466">50s</text><line x1="410.1" y1="175" x2="410.1" y2="180" stroke="#506274"/><text x="410.1" y="193" text-anchor="middle" font-size="11" fill="#425466">100s</text><line x1="570.2" y1="175" x2="570.2" y2="180" stroke="#506274"/><text x="570.2" y="193" text-anchor="middle" font-size="11" fill="#425466">150s</text><line x1="730.2" y1="175" x2="730.2" y2="180" stroke="#506274"/><text x="730.2" y="193" text-anchor="middle" font-size="11" fill="#425466">200s</text><line x1="890.3" y1="175" x2="890.3" y2="180" stroke="#506274"/><text x="890.3" y="193" text-anchor="middle" font-size="11" fill="#425466">250s</text><line x1="967.1" y1="175" x2="967.1" y2="180" stroke="#506274"/><text x="967.1" y="193" text-anchor="middle" font-size="11" fill="#425466">274s</text>
  <rect x="90" y="225" width="14" height="14" fill="#126e82"/><text x="110" y="237" font-size="12" fill="#222">vLLM API (prefill + decode + queue): 232.7s (85%)</text><rect x="570" y="225" width="14" height="14" fill="#2c8f3a"/><text x="590" y="237" font-size="12" fill="#222">bash subprocess (sandboxed exec): 36.9s (13%)</text><rect x="90" y="247" width="14" height="14" fill="#d17b0f"/><text x="110" y="259" font-size="12" fill="#222">worktree clone + extract + cleanup: 4.0s (1%)</text><rect x="570" y="247" width="14" height="14" fill="#7a5cb3"/><text x="590" y="259" font-size="12" fill="#222">python framework + asyncio overhead: 1.3s (0%)</text>
</svg>
