<svg xmlns="http://www.w3.org/2000/svg" width="1000" height="520" viewBox="0 0 1000 520">
  <rect width="1000" height="520" fill="#f7f4ec"/>
  <text x="250" y="50" font-size="14" fill="#17212b" font-family="monospace" font-weight="bold">Worker time budget per hour (warmup vs productive)</text><text x="240" y="89.0" text-anchor="end" font-size="12" fill="#222" font-family="monospace">Current (30 turns, conc=64)</text><rect x="250" y="70" width="144.2" height="28" fill="#c0392b" opacity="0.85"/><rect x="394.2" y="70" width="565.8" height="28" fill="#2c8f3a" opacity="0.85"/><text x="322.1" y="88.0" text-anchor="middle" font-size="11" fill="white" font-family="monospace">20% warmup</text><text x="677.1" y="88.0" text-anchor="middle" font-size="11" fill="white" font-family="monospace">80% productive</text><text x="240" y="125.0" text-anchor="end" font-size="12" fill="#222" font-family="monospace">15 turns, conc=64</text><rect x="250" y="106" width="144.2" height="28" fill="#c0392b" opacity="0.85"/><rect x="394.2" y="106" width="565.8" height="28" fill="#2c8f3a" opacity="0.85"/><text x="322.1" y="124.0" text-anchor="middle" font-size="11" fill="white" font-family="monospace">20% warmup</text><text x="677.1" y="124.0" text-anchor="middle" font-size="11" fill="white" font-family="monospace">80% productive</text><text x="240" y="161.0" text-anchor="end" font-size="12" fill="#222" font-family="monospace">15 turns, conc=32</text><rect x="250" y="142" width="144.2" height="28" fill="#c0392b" opacity="0.85"/><rect x="394.2" y="142" width="565.8" height="28" fill="#2c8f3a" opacity="0.85"/><text x="322.1" y="160.0" text-anchor="middle" font-size="11" fill="white" font-family="monospace">20% warmup</text><text x="677.1" y="160.0" text-anchor="middle" font-size="11" fill="white" font-family="monospace">80% productive</text><text x="240" y="197.0" text-anchor="end" font-size="12" fill="#222" font-family="monospace">10 turns, conc=64</text><rect x="250" y="178" width="144.2" height="28" fill="#c0392b" opacity="0.85"/><rect x="394.2" y="178" width="565.8" height="28" fill="#2c8f3a" opacity="0.85"/><text x="322.1" y="196.0" text-anchor="middle" font-size="11" fill="white" font-family="monospace">20% warmup</text><text x="677.1" y="196.0" text-anchor="middle" font-size="11" fill="white" font-family="monospace">80% productive</text><text x="240" y="233.0" text-anchor="end" font-size="12" fill="#222" font-family="monospace">30 turns, conc=32</text><rect x="250" y="214" width="144.2" height="28" fill="#c0392b" opacity="0.85"/><rect x="394.2" y="214" width="565.8" height="28" fill="#2c8f3a" opacity="0.85"/><text x="322.1" y="232.0" text-anchor="middle" font-size="11" fill="white" font-family="monospace">20% warmup</text><text x="677.1" y="232.0" text-anchor="middle" font-size="11" fill="white" font-family="monospace">80% productive</text><text x="250" y="300" font-size="14" fill="#17212b" font-family="monospace" font-weight="bold">Fleet throughput (80 effective workers) → days to 12.3M</text><text x="240" y="329.0" text-anchor="end" font-size="12" fill="#222" font-family="monospace">Current (30 turns, conc=64)</text><rect x="250" y="310" width="212.0" height="28" fill="#126e82" opacity="0.85"/><text x="467.0" y="328.0" font-size="12" fill="#222" font-family="monospace">52215/hr → 9.8d</text><text x="240" y="365.0" text-anchor="end" font-size="12" fill="#222" font-family="monospace">15 turns, conc=64</text><rect x="250" y="346" width="428.8" height="28" fill="#126e82" opacity="0.85"/><text x="683.8" y="364.0" font-size="12" fill="#222" font-family="monospace">105610/hr → 4.8d</text><text x="240" y="401.0" text-anchor="end" font-size="12" fill="#222" font-family="monospace">15 turns, conc=32</text><rect x="250" y="382" width="211.9" height="28" fill="#126e82" opacity="0.85"/><text x="466.9" y="400.0" font-size="12" fill="#222" font-family="monospace">52196/hr → 9.8d</text><text x="240" y="437.0" text-anchor="end" font-size="12" fill="#222" font-family="monospace">10 turns, conc=64</text><rect x="250" y="418" width="645.5" height="28" fill="#126e82" opacity="0.85"/><text x="900.5" y="436.0" font-size="12" fill="#222" font-family="monospace">158966/hr → 3.2d</text><text x="240" y="473.0" text-anchor="end" font-size="12" fill="#222" font-family="monospace">30 turns, conc=32</text><rect x="250" y="454" width="103.5" height="28" fill="#126e82" opacity="0.85"/><text x="358.5" y="472.0" font-size="12" fill="#222" font-family="monospace">25498/hr → 20.1d</text>
</svg>
