<svg xmlns="http://www.w3.org/2000/svg" width="1396" height="1396" fill="none" viewBox="0 0 1396 1396"><circle cx="698" cy="698" r="681" fill="#dfcfb8"/><circle cx="698" cy="698" r="640" fill="#212b33"/><path fill="#dfcfb8" d="M675 1205c-14-3-29-9-28-11l14-1c23-2 38-5 60-15a82 82 0 0 1 39-8l21 1c20 5 40 12 40 15l-3 1h-41a110 110 0 0 0-32 9c-20 8-27 9-46 9zm245-60-13-2q-21-3-49-15a153 153 0 0 0-132-1c-35 14-53 17-89 17-31 0-47-3-75-13-42-16-53-18-79-18-19 0-22 0-49 9l-16 4h-16c-15 0-17 0-25-2a153 153 0 0 1-33-15c-1-2 1-2 14-2 15-1 33-4 46-7l23-8c24-9 35-11 54-13 26-1 48 3 88 18a169 169 0 0 0 69 13c27 0 44-3 71-12 31-12 46-16 65-18a177 177 0 0 1 86 13 185 185 0 0 0 149 6c25-10 31-12 52-12 15 0 19 1 26 3l30 11q5 3-15 3c-27 0-42 4-78 23a148 148 0 0 1-47 17c-8 1-51 2-57 1m11-88c-17-2-29-5-56-15q-26-10-49-14c-11-2-16-3-36-3-31 0-43 3-80 16a193 193 0 0 1-148-1 188 188 0 0 0-95-13l-49 13c-32 12-38 13-50 13q-20-1-48-29a269 269 0 0 1-43-57c-3-6-4-13-2-13h93c93-1 97-1 176-6a5000 5000 0 0 0 211-19l26-3a9827 9827 0 0 0 291-40l18-3q4-1 4 3c0 8-7 34-17 56a263 263 0 0 1-55 86 81 81 0 0 1-37 23 136 136 0 0 1-55 6M603 897l15-132c11-114 14-265 9-408l-8-156v-8l3 1a1095 1095 0 0 1 256 318c41 79 70 151 101 249l18 61c-1 3-4 4-47 14a4228 4228 0 0 1-270 52l-76 11zm-272-33q-34-2-36-4c-2-2 1-6 16-20a1000 1000 0 0 0 193-265 1170 1170 0 0 0 72-176c12-37 24-80 24-86l1-2c1 0 1 18-1 175l-2 92a3538 3538 0 0 1-10 196l-3 37-3 32q-1 9-3 8l-43 6-69 6c-27 2-111 2-136 1"/></svg>

