<svg width="96" height="40" viewBox="0 0 96 40" fill="none" xmlns="http://www.w3.org/2000/svg">
<path d="M0.525391 12.4446C0.525391 8.55038 2.77226 5.46143 7.09737 5.46143C11.4225 5.46143 13.6504 8.55038 13.6504 12.4446C13.6504 16.3389 11.5722 19.4278 7.04128 19.4278C2.51039 19.4278 0.526133 16.3575 0.526133 12.4446H0.525391ZM10.7661 12.4446C10.7661 9.91731 9.81115 7.63254 7.09663 7.63254C4.3821 7.63254 3.40818 9.91657 3.40818 12.4446C3.40818 14.9727 4.34422 17.1628 7.05874 17.1628C9.77326 17.1628 10.7661 14.9727 10.7661 12.4446Z" fill="#1F1E1B"/>
<path d="M14.8457 8.86747H17.5045V10.4587C18.1033 9.35406 19.1337 8.71777 20.7253 8.71777C23.4213 8.71777 25.0876 10.8521 25.0876 13.96C25.0876 17.3673 23.084 19.4266 20.5756 19.4266C19.0969 19.4266 18.1233 18.865 17.5428 17.8721V24.5188H14.8468V8.86635L14.8461 8.86709L14.8457 8.86747ZM22.3348 14.1097C22.3348 11.9379 21.3241 10.8893 19.8632 10.8893C18.4023 10.8893 17.3169 11.9189 17.3169 14.1097C17.3169 16.3005 18.3655 17.2176 19.8632 17.2176C21.3609 17.2176 22.3348 16.2437 22.3348 14.1097Z" fill="#1F1E1B"/>
<path d="M25.9473 14.1097C25.9473 10.8711 27.9698 8.71777 31.0777 8.71777C33.9801 8.71777 35.6643 10.5527 35.6643 13.5477V14.7649H28.5875C28.8312 16.4502 29.9912 17.1426 31.7143 17.1426C32.9494 17.1426 34.1477 16.8053 35.3838 15.9064V18.1533C34.3913 18.9586 33.137 19.4077 31.6393 19.4077C28.0444 19.4077 25.9473 17.5538 25.9473 14.1086V14.1093V14.1097ZM28.6432 12.8553H33.043C32.9304 11.5073 32.2566 10.7771 30.9087 10.7771C29.7104 10.7771 28.9055 11.4695 28.6428 12.8553H28.6432Z" fill="#1F1E1B"/>
<path d="M36.7305 8.86858H39.4264V10.422C40.1567 9.33623 41.2992 8.71777 42.7029 8.71777C45.2302 8.71777 46.4664 10.2155 46.4664 12.9114V19.2769H43.7705V13.3605C43.7705 11.7131 43.0591 10.9268 41.6733 10.9268C40.2874 10.9268 39.4264 11.8067 39.4264 13.6038V19.2769H36.7305V8.86747V8.86821V8.86858Z" fill="#1F1E1B"/>
<path d="M5.65414 25.2974H8.08785L13.7799 38.9651H10.9153L9.6234 35.7443H3.89423L2.60234 38.9651H0L5.65414 25.2974ZM8.7063 33.441L6.75882 28.536L4.81133 33.441H8.7063Z" fill="#1F1E1B"/>
<path d="M16.925 26.1211L16.9628 26.14V28.5556H19.5091V30.7274H16.9818V35.5577C16.9818 36.6431 17.4877 36.9804 18.124 36.9804C18.6477 36.9804 19.0975 36.8307 19.5098 36.5313V38.6656C18.9861 38.9839 18.3495 39.1526 17.6002 39.1526C15.616 39.1526 14.3427 38.497 14.3427 35.8203V30.7278H12.6953V29.2112L16.9268 26.1222L16.925 26.1215V26.1211Z" fill="#1F1E1B"/>
<path d="M20.5 24.2117H23.1588V30.1652C23.8891 29.0416 25.0316 28.4053 26.4164 28.4053C28.9626 28.4053 30.1988 29.903 30.1988 32.599V38.9645H27.5029V33.048C27.5029 31.4007 26.7915 30.6143 25.4057 30.6143C24.0198 30.6143 23.1967 31.4943 23.1967 33.2913V38.9645H20.5007V24.2109L20.5 24.2117Z" fill="#1F1E1B"/>
<path d="M31.1895 33.7974C31.1895 30.5588 33.2116 28.4055 36.3195 28.4055C39.222 28.4055 40.9061 30.2405 40.9061 33.2358V34.4531H33.8293C34.0726 36.1383 35.233 36.8307 36.9561 36.8307C38.1912 36.8307 39.3895 36.4934 40.626 35.5956V37.8425C39.6331 38.6478 38.3791 39.0965 36.8815 39.0965C33.2866 39.0965 31.1895 37.243 31.1895 33.7986V33.7978V33.7974ZM33.885 32.5431H38.2852C38.1722 31.1951 37.4988 30.4648 36.1508 30.4648C34.9526 30.4648 34.1473 31.1572 33.885 32.5431Z" fill="#1F1E1B"/>
<path d="M41.9746 28.5556H44.6706V30.1097C45.4008 29.0243 46.5434 28.4055 47.9471 28.4055C50.4744 28.4055 51.7106 29.9032 51.7106 32.5992V38.9647H49.0146V33.0482C49.0146 31.4009 48.3033 30.6145 46.9174 30.6145C45.5316 30.6145 44.6706 31.4945 44.6706 33.2915V38.9647H41.9746V28.5552V28.5556Z" fill="#1F1E1B"/>
<path d="M61.1441 39.1343C59.9458 39.1343 59.1219 38.7413 58.8972 37.4869C58.3356 38.5544 57.2498 39.1161 55.864 39.1161C53.8604 39.1161 52.6621 38.1425 52.6621 36.4201C52.6621 34.6977 53.8225 33.7241 56.1634 33.1064C58.0919 32.5637 58.6907 32.3761 58.6907 31.7584C58.6907 31.1028 58.2037 30.6731 56.8557 30.6731C55.5828 30.6731 54.1598 31.1968 52.7739 32.414V29.9049C53.7846 29.0439 55.4327 28.4072 57.099 28.4072C59.8886 28.4072 61.3116 29.6423 61.3116 31.946V35.8592C61.3116 36.7581 61.5738 37.0196 62.1915 37.0196C62.3969 37.0196 62.5477 37.0007 62.6785 36.9449V38.742C62.2855 38.9853 61.9482 39.135 61.1429 39.135L61.1437 39.1343H61.1441ZM58.7297 34.6973V33.9481C58.4864 34.2664 57.9623 34.5097 57.0255 34.7534C55.7332 35.0907 55.3781 35.5208 55.3781 36.1393C55.3781 36.7577 55.8461 37.0943 56.5203 37.0943C57.8311 37.0943 58.7293 36.0085 58.7293 34.6977L58.7297 34.6973Z" fill="#1F1E1B"/>
<path d="M77.3615 8.62784C77.3615 5.0582 80.2553 2.16446 83.8249 2.16446H87.3984V0H83.8249C79.0599 0 75.1971 3.86283 75.1971 8.62784V30.3904H77.3615V8.62784Z" fill="#9E6D43"/>
<path d="M77.3622 32.5085V25.0673C77.3622 21.4977 80.2559 18.6039 83.8255 18.6039H91.0938V16.4395H83.8255C79.0606 16.4395 75.1978 20.3023 75.1978 25.0673V32.5085C75.1978 36.1036 78.1121 39.0179 81.7071 39.0179V36.8536C79.3075 36.8536 77.3622 34.9082 77.3622 32.5085Z" fill="#9E6D43"/>
<path d="M71.022 32.2222V17.3485C71.022 13.7789 68.1282 10.8852 64.5586 10.8852H58.3965V8.7207H64.5586C69.3236 8.72072 73.1864 12.5835 73.1864 17.3485V32.2222C73.1864 35.9752 70.144 39.0176 66.3911 39.0176V36.8532C68.9487 36.8532 71.022 34.7798 71.022 32.2222Z" fill="#9E6D43"/>
<path d="M84.655 4.90707C84.655 3.39235 85.8829 2.16446 87.3977 2.16446C88.9123 2.16448 90.1402 3.39236 90.1402 4.90707C90.1402 6.42179 88.9124 7.64975 87.3977 7.64978C85.8829 7.64978 84.655 6.4218 84.655 4.90707ZM82.4905 4.90707C82.4905 7.61717 84.6876 9.81423 87.3977 9.81423C90.1077 9.81421 92.3047 7.61716 92.3047 4.90707C92.3047 2.19699 90.1077 2.21202e-05 87.3977 0C84.6876 0 82.4905 2.19698 82.4905 4.90707Z" fill="#868263"/>
<path d="M88.3503 21.3465C88.3503 19.8318 89.5783 18.6039 91.093 18.6039C92.6077 18.6039 93.8355 19.8318 93.8356 21.3465C93.8356 22.8612 92.6077 24.0892 91.093 24.0892C89.5782 24.0892 88.3503 22.8613 88.3503 21.3465ZM86.1858 21.3465C86.1858 24.0566 88.3829 26.2537 91.093 26.2537C93.803 26.2537 96 24.0566 96 21.3465C96 18.6364 93.803 16.4395 91.093 16.4395C88.3829 16.4395 86.1858 18.6364 86.1858 21.3465Z" fill="#868263"/>
<path d="M55.2292 13.6278C55.2292 12.1131 56.4572 10.8852 57.9719 10.8852C59.4866 10.8852 60.7144 12.1131 60.7145 13.6278C60.7145 15.1425 59.4866 16.3705 57.9719 16.3705C56.4571 16.3705 55.2292 15.1425 55.2292 13.6278ZM53.0647 13.6278C53.0647 16.3379 55.2618 18.5349 57.9719 18.5349C60.6819 18.5349 62.8789 16.3379 62.8789 13.6278C62.8789 10.9177 60.6819 8.72073 57.9719 8.7207C55.2618 8.7207 53.0648 10.9177 53.0647 13.6278Z" fill="#868263"/>
</svg>
