<?xml version="1.0" encoding="UTF-8"?>
<svg width="1200pt" height="1200pt" version="1.1" viewBox="0 0 1200 1200" xmlns="http://www.w3.org/2000/svg">
 <path d="m320.44 59.719c-42.75 0-77.719 34.969-77.719 77.719v31.125h-72.375c-65.625 0-118.92 53.438-118.92 119.06v733.6c0 65.625 53.297 119.11 118.92 119.11l859.18-0.046875c65.625 0 119.06-53.438 119.06-119.11v-733.55c0-65.625-53.438-119.06-119.06-119.06h-72.234l-0.046875-31.172c0-42.75-35.109-77.719-77.859-77.719s-77.672 34.969-77.672 77.719l0.046875 31.172h-403.6v-31.172c0-42.75-34.969-77.719-77.719-77.719zm0 34.312c24.375 0 43.406 19.031 43.406 43.406v102.98c0 24.375-19.031 43.406-43.406 43.406s-43.406-19.078-43.406-43.406v-102.98c0-24.375 19.031-43.406 43.406-43.406zm558.94 0c24.375 0 43.547 19.031 43.547 43.406v102.98c0 24.375-19.172 43.406-43.547 43.406s-43.406-19.078-43.406-43.406l0.046875-54.656v-48.375c0-24.375 19.031-43.406 43.406-43.406zm-709.03 108.8h72.375v37.547c0 42.75 34.969 77.719 77.719 77.719s77.719-34.969 77.719-77.719v-37.547h403.55v37.547c0 42.75 34.922 77.719 77.672 77.719s77.859-34.969 77.859-77.719v-37.547h72.234c47.25 0 84.797 37.547 84.797 84.797v109.22h-1028.5v-109.22c0-47.25 37.406-84.797 84.656-84.797zm-84.656 228.28h1028.6v590.11c0 47.25-37.547 84.797-84.797 84.797l-859.13-0.046875c-47.25 0-84.656-37.547-84.656-84.797zm188.44 92.766c-29.062 0-53.016 23.812-53.016 52.875v99.844c0 29.062 24 52.922 53.016 52.922h99.984c29.062 0 53.016-23.859 53.016-52.922v-99.844c0-29.062-23.953-52.875-53.016-52.875zm275.86 0c-29.062 0-53.016 23.812-53.016 52.875v99.844c0 29.062 24 52.922 53.016 52.922h99.984c29.062 0 53.016-23.859 53.016-52.922v-99.844c0-29.062-23.953-52.875-53.016-52.875zm275.76 0c-29.062 0-52.922 23.812-52.922 52.875v99.844c0 29.062 23.859 52.922 52.922 52.922h100.08c29.062 0 52.922-23.859 52.922-52.922v-99.844c0-29.062-23.859-52.875-52.922-52.875zm-551.58 34.312h99.984c10.688 0 18.703 7.9688 18.703 18.562v99.844c0 10.594-8.0156 18.609-18.703 18.609h-99.984c-10.688 0-18.75-8.0156-18.75-18.609v-99.844c0-10.594 8.0625-18.562 18.75-18.562zm275.86 0h99.984c10.688 0 18.703 7.9688 18.703 18.562v99.844c0 10.594-8.0156 18.609-18.703 18.609h-99.984c-10.688 0-18.703-8.0156-18.703-18.609l-0.046875-99.844c0-10.594 8.0156-18.562 18.703-18.562zm275.76 0h100.08c10.688 0 18.75 7.9688 18.75 18.562v99.844c0 10.594-8.0625 18.609-18.75 18.609h-100.08c-10.688 0-18.609-8.0156-18.609-18.609l-0.046875-99.844c0-10.594 7.9219-18.562 18.609-18.562zm-551.63 242.06c-29.062 0-53.016 24-53.016 53.016v99.703c0 29.062 24 52.922 53.016 52.922h99.984c29.062 0 53.016-23.859 53.016-52.922v-99.703c0-29.062-23.953-53.016-53.016-53.016zm275.86 0c-29.062 0-53.016 24-53.016 53.016v99.703c0 29.062 24 52.922 53.016 52.922h99.984c29.062 0 53.016-23.859 53.016-52.922v-99.703c0-29.062-23.953-53.016-53.016-53.016zm275.76 0c-29.062 0-52.922 24-52.922 53.016v99.703c0 29.062 23.859 52.922 52.922 52.922h100.08c29.062 0 52.922-23.859 52.922-52.922v-99.703c0-29.062-23.859-53.016-52.922-53.016zm-551.63 34.266h99.984c10.688 0 18.703 8.1562 18.703 18.75v99.703c0 10.594-8.0156 18.703-18.703 18.703h-99.984c-10.688 0-18.75-8.1094-18.75-18.703v-99.703c0-10.594 8.0625-18.75 18.75-18.75zm275.86 0h99.984c10.688 0 18.703 8.1562 18.703 18.75v99.703c0 10.594-8.0156 18.703-18.703 18.703l-99.984 0.046875c-10.688 0-18.703-8.1094-18.703-18.703v-99.703c0-10.594 8.0156-18.75 18.703-18.75zm275.76 0h100.08c10.688 0 18.75 8.1562 18.75 18.75v99.703c0 10.594-8.0625 18.703-18.75 18.703h-100.08c-10.688 0-18.609-8.1094-18.609-18.703v-99.703c0-10.594 7.9219-18.75 18.609-18.75z"/>
</svg>
