<?xml version="1.0" encoding="UTF-8"?>
<svg width="1200pt" height="1200pt" version="1.1" viewBox="0 0 1200 1200" xmlns="http://www.w3.org/2000/svg">
 <path d="m1140 660c0 115.2-92.398 207.6-207.6 207.6h-132l28.801-37.199c21.602-30 25.199-69.602 8.3984-100.8-13.199-28.801-40.801-46.801-72-52.801l0.003906-145.2c0-54-44.398-98.398-98.398-98.398l-138-0.003906c-54 0-98.398 44.398-98.398 98.398v144c-30 4.8008-57.602 24-72 52.801-16.801 33.602-13.199 72 8.3984 100.8l28.801 37.199h-132c-111.6 0-204-92.398-204-206.4 0-115.2 92.398-207.6 207.6-207.6 13.199 0 25.199 1.1992 38.398 3.6016 15.602-148.8 140.4-265.2 294-265.2s278.4 116.4 294 265.2c12-1.1992 25.199-3.6016 38.398-3.6016 115.2 0 207.6 93.602 207.6 207.6zm-692.4 78h50.398v-206.4c0-18 15.602-32.398 32.398-32.398h138c18 0 32.398 15.602 32.398 32.398v207.6h50.398c27.602 0 42 30 25.199 52.801l-151.2 204c-13.199 16.801-38.398 16.801-52.801 0l-151.2-204c-15.598-24 0-54 26.402-54z"/>
</svg>
