<?xml version="1.0" encoding="UTF-8"?>
<svg width="1200pt" height="1200pt" version="1.1" viewBox="0 0 1200 1200" xmlns="http://www.w3.org/2000/svg">
 <path d="m1028.3 188.06c-0.1875-2.4375-1.125-4.875-2.4375-7.125-0.5625-0.9375-1.125-1.875-1.6875-2.625-0.375-0.375-0.75-0.75-0.9375-1.125l-1.5-1.5c-0.75-0.5625-1.6875-1.3125-2.8125-1.6875-2.25-1.3125-4.6875-2.0625-7.125-2.25-27.375-6.1875-92.25-0.5625-106.88 0.75-38.25 3.5625-76.5 11.062-113.62 22.125-77.062 22.875-140.44 57.562-193.5 105.94-19.125 17.438-38.812 36-60.188 57-4.3125 4.125-9.9375 9.75-16.5 16.312l-167.26 6.9375c-9 0.375-17.438 4.125-23.812 10.5l-150.56 150.56c-9.75 9.75-12.938 23.812-8.625 36.938 4.5 12.938 15.75 22.125 29.25 23.812l114 14.25 36 36-49.125 20.062c-11.062 4.5-19.125 14.25-21.562 26.062s1.3125 23.812 9.75 32.25l179.63 179.63c6.75 6.75 15.938 10.5 25.125 10.5 2.4375 0 4.6875-0.1875 7.125-0.75 11.812-2.4375 21.375-10.312 26.062-21.562l20.062-49.125 36 36 14.062 114c1.6875 13.688 10.688 24.938 23.812 29.438 3.9375 1.3125 7.875 2.0625 11.812 2.0625 9.1875 0 18.375-3.5625 25.125-10.5l150.74-150.74c6.375-6.375 10.125-14.812 10.5-23.812l6.9375-167.26c6.375-6.5625 12.188-12.188 16.312-16.5 21.188-21.562 39.75-41.25 57-60.188 48.375-53.062 83.062-116.25 105.94-193.5 11.062-37.312 18.562-75.562 22.125-113.62 1.5-14.812 7.125-80.062 0.75-107.25zm-120.19 19.875c13.125-1.3125 65.062-3.9375 87-3.1875 0.9375 21.938-1.875 73.875-3.1875 87-2.25 23.438-6.1875 47.062-11.438 70.312l-142.69-142.69c23.438-5.25 46.875-9.1875 70.312-11.438zm-552.94 208.31 128.44-5.25c-56.625 56.812-135.19 136.13-168 169.69l-111.19-13.875zm24.75 150.19 253.5 253.69c-12.562 12.375-24 23.625-33 32.438l-253.13-253.13c8.8125-9 20.062-20.438 32.625-33zm114.38 318.94-179.63-179.63 63-25.688 142.5 142.5zm138.56 110.25-13.688-111.38c33.562-32.625 113.06-111.19 169.87-168l-5.25 128.63zm240.19-417.56c-16.875 18.562-35.25 38.062-56.062 59.25-25.5 26.062-99.188 99.375-158.06 157.69l-253.87-254.06c58.125-58.875 131.44-132.56 157.5-157.87 21.188-20.625 40.5-39 59.25-56.25 48.75-44.438 105-75.375 176.06-96.938l172.13 172.13c-21.562 71.25-52.312 127.31-96.938 176.06z"/>
 <path d="m617.44 415.5c-45.938 45.938-45.938 120.94 0 166.87 23.062 23.062 53.25 34.5 83.438 34.5s60.375-11.438 83.438-34.5c45.938-45.938 45.938-120.94 0-166.87-45.938-45.938-120.74-45.938-166.87 0zm141.74 141.56c-32.062 32.062-84.375 32.062-116.44 0s-32.062-84.375 0-116.44c16.125-16.125 37.125-24 58.125-24s42.188 8.0625 58.125 24c32.25 32.25 32.25 84.375 0.1875 116.44z"/>
 <path d="m355.5 844.5c-6.9375-6.9375-18.188-6.9375-25.312 0l-88.688 88.688c-6.9375 6.9375-6.9375 18.188 0 25.312 3.5625 3.5625 8.0625 5.25 12.562 5.25s9.1875-1.6875 12.562-5.25l88.688-88.688c7.125-7.125 7.125-18.375 0.1875-25.312z"/>
 <path d="m260.63 863.63 44.438-44.438c6.9375-6.9375 6.9375-18.188 0-25.312-6.9375-6.9375-18.188-6.9375-25.312 0l-44.438 44.438c-6.9375 6.9375-6.9375 18.188 0 25.312 3.5625 3.5625 8.0625 5.25 12.562 5.25 4.6875 0 9.1875-1.875 12.75-5.25z"/>
 <path d="m380.63 894.94-44.438 44.438c-6.9375 6.9375-6.9375 18.188 0 25.312 3.5625 3.5625 8.0625 5.25 12.562 5.25s9.1875-1.6875 12.562-5.25l44.438-44.438c6.9375-6.9375 6.9375-18.188 0-25.312-6.75-6.9375-18.188-6.9375-25.125 0z"/>
</svg>
