<?xml version="1.0" encoding="UTF-8"?>
<svg width="1200pt" height="1200pt" version="1.1" viewBox="0 0 1200 1200" xmlns="http://www.w3.org/2000/svg">
 <path d="m231.15 0.058594c-6.0508 0.027344-11.953 1.8828-16.93 5.3203-4.9766 3.4414-8.7969 8.3047-10.961 13.957l-109.63 290.8c-0.57422 1.7539-0.98828 3.5586-1.2305 5.3906-17.168 16.25-28.008 39.156-28.008 64.336v165.64c0 22.363 8.5664 42.934 22.5 58.594-13.934 15.66-22.5 36.23-22.5 58.594v165.64c0 22.395 8.5938 42.992 22.559 58.711-13.984 15.672-22.559 36.242-22.559 58.652v165.64c0 48.59 40.238 88.594 88.828 88.594h893.79c48.59 0 88.594-40.004 88.594-88.594v-165.64c0-22.41-8.5078-42.98-22.441-58.652 13.914-15.719 22.441-36.316 22.441-58.711v-165.64c0-22.363-8.5-42.934-22.383-58.594 13.883-15.66 22.383-36.23 22.383-58.594v-165.64c0-25.785-11.289-49.199-29.121-65.508-0.30469-1.4336-0.71875-2.8438-1.2305-4.2188l-109.63-290.8c-2.1641-5.6523-5.9844-10.516-10.961-13.957-4.9766-3.4375-10.879-5.293-16.93-5.3203zm20.859 60.059h694.92l87.188 230.98h-869.36zm-98.789 290.98h893.79c16.398 0 28.77 12.391 28.77 28.77v165.64c0 16.379-12.371 28.594-28.77 28.594h-893.79c-16.398 0-28.77-12.215-28.77-28.594v-165.64c0-16.379 12.371-28.77 28.77-28.77zm119.3 31.23c-43.094 1.1094-78.34 37.055-78.34 80.391 0 44.023 36.367 80.156 80.391 80.156 44.023 0 80.391-36.133 80.391-80.156 0-44.023-36.367-80.391-80.391-80.391-0.6875 0-1.3672-0.019531-2.0508 0zm344 50.273c-7.9688 0.015625-15.602 3.1992-21.219 8.8477-5.6172 5.6523-8.7539 13.305-8.7227 21.27 0.03125 7.9258 3.1953 15.52 8.8086 21.117 5.6094 5.5977 13.207 8.75 21.133 8.7656h359.65c7.9141-0.03125 15.5-3.1875 21.094-8.7852 5.5977-5.5977 8.7578-13.184 8.7891-21.098 0.03125-7.957-3.1016-15.598-8.7031-21.246-5.6055-5.6484-13.223-8.8398-21.18-8.8711zm-341.95 9.7266c11.605 0 20.391 8.8047 20.391 20.391 0 11.586-8.7852 20.391-20.391 20.391-11.605 0-20.391-8.8047-20.391-20.391 0-11.586 8.7852-20.391 20.391-20.391zm-121.35 191.78h893.79c16.398 0 28.77 12.215 28.77 28.594v165.64c0 16.379-12.371 28.77-28.77 28.77h-893.79c-16.398 0-28.77-12.391-28.77-28.77v-165.64c0-16.379 12.371-28.594 28.77-28.594zm121.35 31.23c-44.023 0-80.391 36.133-80.391 80.156 0 44.023 36.367 80.391 80.391 80.391 44.023 0 80.391-36.367 80.391-80.391 0-44.023-36.367-80.156-80.391-80.156zm341.95 50.273c-7.9258 0.015625-15.523 3.168-21.133 8.7656-5.6133 5.5977-8.7773 13.191-8.8086 21.117-0.03125 7.9648 3.1055 15.617 8.7227 21.27 5.6172 5.6484 13.25 8.832 21.219 8.8477h359.65c7.957-0.03125 15.574-3.2227 21.18-8.8711 5.6016-5.6484 8.7344-13.289 8.7031-21.246-0.03125-7.918-3.1914-15.5-8.7891-21.098-5.5938-5.5977-13.18-8.7539-21.094-8.7852zm-341.95 9.7266c11.605 0 20.391 8.5703 20.391 20.156 0 11.586-8.7852 20.391-20.391 20.391-11.605 0-20.391-8.8047-20.391-20.391 0-11.586 8.7852-20.156 20.391-20.156zm-121.35 191.78h893.79c16.398 0 28.77 12.215 28.77 28.594v165.64c0 16.379-12.371 28.594-28.77 28.594h-893.79c-16.398 0-28.77-12.215-28.77-28.594v-165.64c0-16.379 12.371-28.594 28.77-28.594zm119.3 31.055c-43.094 1.1094-78.34 36.996-78.34 80.332 0 44.023 36.367 80.391 80.391 80.391 44.023 0 80.391-36.367 80.391-80.391 0-44.023-36.367-80.332-80.391-80.332-0.6875 0-1.3672-0.019531-2.0508 0zm344 50.449c-7.9258 0.015625-15.523 3.168-21.133 8.7656-5.6133 5.5977-8.7773 13.191-8.8086 21.117-0.046875 7.9766 3.0859 15.645 8.7031 21.305 5.6172 5.6641 13.262 8.8555 21.238 8.8711h359.65c7.9648-0.03125 15.594-3.2305 21.199-8.8906 5.6055-5.6602 8.7305-13.32 8.6836-21.285-0.03125-7.918-3.1914-15.5-8.7891-21.098-5.5938-5.5977-13.18-8.7539-21.094-8.7852zm-343.01 9.5508c0.35547-0.015624 0.69141 0 1.0547 0 11.605 0 20.391 8.7461 20.391 20.332 0 11.586-8.7852 20.391-20.391 20.391-11.605 0-20.391-8.8047-20.391-20.391 0-11.227 8.2695-19.805 19.336-20.332z" fill-rule="evenodd"/>
</svg>
