<svg xmlns="http://www.w3.org/2000/svg" width="1600" height="880" viewBox="0 0 1600 880">
  <rect width="1600" height="880" fill="#fbfaf7"/>
  <text x="118" y="58" fill="#1f2933" font-family="Inter, Arial, sans-serif" font-size="40" font-weight="780">1.7e18 MoE progress over time</text>
  <text x="118" y="98" fill="#667085" font-family="Inter, Arial, sans-serif" font-size="24">Finished marin-community/dial-moe runs; metric is C4-en BPB. Gray = 1e18-2e18; green = 1.65e18-1.75e18.</text>
  <g font-family="Inter, Arial, sans-serif">
    <line x1="118" x2="1516" y1="154.9" y2="154.9" stroke="#e7e2d8" stroke-width="1.5"/><text x="100" y="162.9" text-anchor="end" fill="#59616d" font-size="25">1.16</text>
<line x1="118" x2="1516" y1="290.5" y2="290.5" stroke="#e7e2d8" stroke-width="1.5"/><text x="100" y="298.5" text-anchor="end" fill="#59616d" font-size="25">1.12</text>
<line x1="118" x2="1516" y1="426.0" y2="426.0" stroke="#e7e2d8" stroke-width="1.5"/><text x="100" y="434.0" text-anchor="end" fill="#59616d" font-size="25">1.08</text>
<line x1="118" x2="1516" y1="561.5" y2="561.5" stroke="#e7e2d8" stroke-width="1.5"/><text x="100" y="569.5" text-anchor="end" fill="#59616d" font-size="25">1.04</text>
<line x1="118" x2="1516" y1="697.0" y2="697.0" stroke="#e7e2d8" stroke-width="1.5"/><text x="100" y="705.0" text-anchor="end" fill="#59616d" font-size="25">1.00</text>
    <line x1="118.0" x2="118.0" y1="138" y2="758" stroke="#eee9df" stroke-width="1.2"/><text x="118.0" y="800" text-anchor="middle" fill="#59616d" font-size="25">Apr 7</text>
<line x1="444.2" x2="444.2" y1="138" y2="758" stroke="#eee9df" stroke-width="1.2"/><text x="444.2" y="800" text-anchor="middle" fill="#59616d" font-size="25">Apr 14</text>
<line x1="770.4" x2="770.4" y1="138" y2="758" stroke="#eee9df" stroke-width="1.2"/><text x="770.4" y="800" text-anchor="middle" fill="#59616d" font-size="25">Apr 21</text>
<line x1="1096.6" x2="1096.6" y1="138" y2="758" stroke="#eee9df" stroke-width="1.2"/><text x="1096.6" y="800" text-anchor="middle" fill="#59616d" font-size="25">Apr 28</text>
<line x1="1422.8" x2="1422.8" y1="138" y2="758" stroke="#eee9df" stroke-width="1.2"/><text x="1422.8" y="800" text-anchor="middle" fill="#59616d" font-size="25">May 5</text>
    <line x1="118" x2="1516" y1="401.9" y2="401.9" stroke="#6b7280" stroke-width="2.3" stroke-dasharray="5 9" opacity="0.82"/>
  <text x="1508.0" y="393.9" text-anchor="end" fill="#6b7280" font-size="24" font-weight="700">Delphi 3e18 ref 1.0871</text>
    <line x1="118" x2="1516" y1="559.2" y2="559.2" stroke="#8b5cf6" stroke-width="2.3" stroke-dasharray="8 8" opacity="0.82"/>
  <text x="1508.0" y="551.2" text-anchor="end" fill="#8b5cf6" font-size="24" font-weight="700">March 3e18 MoE best 1.0407</text>
    <line x1="118" x2="1516" y1="734.7" y2="734.7" stroke="#0f766e" stroke-width="2.3" stroke-dasharray="8 8" opacity="0.82"/>
  <text x="1508.0" y="758.7" text-anchor="end" fill="#0f766e" font-size="24" font-weight="700">Current 3e18 MoE best 0.9889</text>
    <line x1="118" x2="1516" y1="758" y2="758" stroke="#aeb6c2" stroke-width="2"/>
    <line x1="118" x2="118" y1="138" y2="758" stroke="#aeb6c2" stroke-width="2"/>
    <text transform="translate(42 448.0) rotate(-90)" text-anchor="middle" fill="#334155" font-size="27" font-weight="650">C4-en BPB, lower is better</text>
    <g><circle cx="156.4" cy="219.0" r="8" fill="#b7bdc8" opacity="0.36" stroke="none" stroke-width="2"/>
<circle cx="156.4" cy="250.0" r="8" fill="#b7bdc8" opacity="0.36" stroke="none" stroke-width="2"/>
<circle cx="156.4" cy="35.4" r="8" fill="#b7bdc8" opacity="0.36" stroke="none" stroke-width="2"/>
<circle cx="156.4" cy="104.1" r="8" fill="#b7bdc8" opacity="0.36" stroke="none" stroke-width="2"/>
<circle cx="157.2" cy="155.3" r="8" fill="#b7bdc8" opacity="0.36" stroke="none" stroke-width="2"/>
<circle cx="219.4" cy="451.7" r="8" fill="#b7bdc8" opacity="0.36" stroke="none" stroke-width="2"/>
<circle cx="221.5" cy="458.7" r="8" fill="#b7bdc8" opacity="0.36" stroke="none" stroke-width="2"/>
<circle cx="221.8" cy="458.1" r="8" fill="#b7bdc8" opacity="0.36" stroke="none" stroke-width="2"/>
<circle cx="296.0" cy="392.0" r="8" fill="#b7bdc8" opacity="0.36" stroke="none" stroke-width="2"/>
<circle cx="449.8" cy="566.7" r="8" fill="#b7bdc8" opacity="0.36" stroke="none" stroke-width="2"/>
<circle cx="496.0" cy="548.2" r="8" fill="#b7bdc8" opacity="0.36" stroke="none" stroke-width="2"/>
<circle cx="496.1" cy="545.4" r="8" fill="#b7bdc8" opacity="0.36" stroke="none" stroke-width="2"/>
<circle cx="498.0" cy="559.9" r="8" fill="#b7bdc8" opacity="0.36" stroke="none" stroke-width="2"/>
<circle cx="498.0" cy="546.6" r="8" fill="#b7bdc8" opacity="0.36" stroke="none" stroke-width="2"/>
<circle cx="499.6" cy="596.1" r="8" fill="#b7bdc8" opacity="0.36" stroke="none" stroke-width="2"/>
<circle cx="504.7" cy="565.9" r="8" fill="#b7bdc8" opacity="0.36" stroke="none" stroke-width="2"/>
<circle cx="536.8" cy="566.2" r="8" fill="#b7bdc8" opacity="0.36" stroke="none" stroke-width="2"/>
<circle cx="536.9" cy="563.8" r="8" fill="#b7bdc8" opacity="0.36" stroke="none" stroke-width="2"/>
<circle cx="536.9" cy="572.1" r="8" fill="#b7bdc8" opacity="0.36" stroke="none" stroke-width="2"/>
<circle cx="537.0" cy="580.6" r="8" fill="#b7bdc8" opacity="0.36" stroke="none" stroke-width="2"/>
<circle cx="537.0" cy="574.6" r="8" fill="#b7bdc8" opacity="0.36" stroke="none" stroke-width="2"/>
<circle cx="538.1" cy="563.6" r="8" fill="#b7bdc8" opacity="0.36" stroke="none" stroke-width="2"/>
<circle cx="538.1" cy="562.6" r="8" fill="#b7bdc8" opacity="0.36" stroke="none" stroke-width="2"/>
<circle cx="539.6" cy="569.5" r="8" fill="#b7bdc8" opacity="0.36" stroke="none" stroke-width="2"/>
<circle cx="549.4" cy="556.7" r="8" fill="#b7bdc8" opacity="0.36" stroke="none" stroke-width="2"/>
<circle cx="549.4" cy="559.3" r="8" fill="#b7bdc8" opacity="0.36" stroke="none" stroke-width="2"/>
<circle cx="550.4" cy="544.5" r="8" fill="#b7bdc8" opacity="0.36" stroke="none" stroke-width="2"/>
<circle cx="551.5" cy="568.0" r="8" fill="#b7bdc8" opacity="0.36" stroke="none" stroke-width="2"/>
<circle cx="586.4" cy="566.7" r="8" fill="#b7bdc8" opacity="0.36" stroke="none" stroke-width="2"/>
<circle cx="588.3" cy="566.7" r="8" fill="#b7bdc8" opacity="0.36" stroke="none" stroke-width="2"/>
<circle cx="589.5" cy="566.7" r="8" fill="#b7bdc8" opacity="0.36" stroke="none" stroke-width="2"/>
<circle cx="590.0" cy="566.7" r="8" fill="#b7bdc8" opacity="0.36" stroke="none" stroke-width="2"/>
<circle cx="671.0" cy="564.3" r="8" fill="#b7bdc8" opacity="0.36" stroke="none" stroke-width="2"/>
<circle cx="671.0" cy="556.6" r="8" fill="#b7bdc8" opacity="0.36" stroke="none" stroke-width="2"/>
<circle cx="671.7" cy="556.5" r="8" fill="#b7bdc8" opacity="0.36" stroke="none" stroke-width="2"/>
<circle cx="671.7" cy="290.6" r="8" fill="#b7bdc8" opacity="0.36" stroke="none" stroke-width="2"/>
<circle cx="672.1" cy="561.1" r="8" fill="#b7bdc8" opacity="0.36" stroke="none" stroke-width="2"/>
<circle cx="672.6" cy="556.0" r="8" fill="#b7bdc8" opacity="0.36" stroke="none" stroke-width="2"/>
<circle cx="672.6" cy="559.9" r="8" fill="#b7bdc8" opacity="0.36" stroke="none" stroke-width="2"/>
<circle cx="672.6" cy="558.0" r="8" fill="#b7bdc8" opacity="0.36" stroke="none" stroke-width="2"/>
<circle cx="672.7" cy="559.1" r="8" fill="#b7bdc8" opacity="0.36" stroke="none" stroke-width="2"/>
<circle cx="672.7" cy="558.5" r="8" fill="#b7bdc8" opacity="0.36" stroke="none" stroke-width="2"/>
<circle cx="672.8" cy="552.6" r="8" fill="#b7bdc8" opacity="0.36" stroke="none" stroke-width="2"/>
<circle cx="673.1" cy="551.5" r="8" fill="#b7bdc8" opacity="0.36" stroke="none" stroke-width="2"/>
<circle cx="673.6" cy="550.6" r="8" fill="#b7bdc8" opacity="0.36" stroke="none" stroke-width="2"/>
<circle cx="674.0" cy="517.3" r="8" fill="#b7bdc8" opacity="0.36" stroke="none" stroke-width="2"/>
<circle cx="688.9" cy="566.6" r="8" fill="#b7bdc8" opacity="0.36" stroke="none" stroke-width="2"/>
<circle cx="688.9" cy="567.3" r="8" fill="#b7bdc8" opacity="0.36" stroke="none" stroke-width="2"/>
<circle cx="688.9" cy="561.8" r="8" fill="#b7bdc8" opacity="0.36" stroke="none" stroke-width="2"/>
<circle cx="688.9" cy="560.5" r="8" fill="#b7bdc8" opacity="0.36" stroke="none" stroke-width="2"/>
<circle cx="688.9" cy="571.2" r="8" fill="#b7bdc8" opacity="0.36" stroke="none" stroke-width="2"/>
<circle cx="689.6" cy="564.6" r="8" fill="#b7bdc8" opacity="0.36" stroke="none" stroke-width="2"/>
<circle cx="726.8" cy="570.3" r="8" fill="#b7bdc8" opacity="0.36" stroke="none" stroke-width="2"/>
<circle cx="726.9" cy="570.1" r="8" fill="#b7bdc8" opacity="0.36" stroke="none" stroke-width="2"/>
<circle cx="729.9" cy="573.7" r="8" fill="#b7bdc8" opacity="0.36" stroke="none" stroke-width="2"/>
<circle cx="729.9" cy="572.0" r="8" fill="#b7bdc8" opacity="0.36" stroke="none" stroke-width="2"/>
<circle cx="733.3" cy="567.8" r="8" fill="#b7bdc8" opacity="0.36" stroke="none" stroke-width="2"/>
<circle cx="756.9" cy="581.2" r="8" fill="#b7bdc8" opacity="0.36" stroke="none" stroke-width="2"/>
<circle cx="757.9" cy="563.0" r="8" fill="#b7bdc8" opacity="0.36" stroke="none" stroke-width="2"/>
<circle cx="757.9" cy="563.3" r="8" fill="#b7bdc8" opacity="0.36" stroke="none" stroke-width="2"/>
<circle cx="757.9" cy="562.7" r="8" fill="#b7bdc8" opacity="0.36" stroke="none" stroke-width="2"/>
<circle cx="757.9" cy="547.2" r="8" fill="#b7bdc8" opacity="0.36" stroke="none" stroke-width="2"/>
<circle cx="766.6" cy="527.4" r="8" fill="#b7bdc8" opacity="0.36" stroke="none" stroke-width="2"/>
<circle cx="766.6" cy="548.5" r="8" fill="#b7bdc8" opacity="0.36" stroke="none" stroke-width="2"/>
<circle cx="766.6" cy="563.1" r="8" fill="#b7bdc8" opacity="0.36" stroke="none" stroke-width="2"/>
<circle cx="767.4" cy="564.7" r="8" fill="#b7bdc8" opacity="0.36" stroke="none" stroke-width="2"/>
<circle cx="767.4" cy="567.8" r="8" fill="#b7bdc8" opacity="0.36" stroke="none" stroke-width="2"/>
<circle cx="770.1" cy="551.0" r="8" fill="#b7bdc8" opacity="0.36" stroke="none" stroke-width="2"/>
<circle cx="770.4" cy="532.9" r="8" fill="#b7bdc8" opacity="0.36" stroke="none" stroke-width="2"/>
<circle cx="775.7" cy="575.1" r="8" fill="#b7bdc8" opacity="0.36" stroke="none" stroke-width="2"/>
<circle cx="775.8" cy="575.1" r="8" fill="#b7bdc8" opacity="0.36" stroke="none" stroke-width="2"/>
<circle cx="775.8" cy="569.4" r="8" fill="#b7bdc8" opacity="0.36" stroke="none" stroke-width="2"/>
<circle cx="776.1" cy="574.0" r="8" fill="#b7bdc8" opacity="0.36" stroke="none" stroke-width="2"/>
<circle cx="779.8" cy="540.8" r="8" fill="#b7bdc8" opacity="0.36" stroke="none" stroke-width="2"/>
<circle cx="781.9" cy="573.6" r="8" fill="#b7bdc8" opacity="0.36" stroke="none" stroke-width="2"/>
<circle cx="781.9" cy="572.2" r="8" fill="#b7bdc8" opacity="0.36" stroke="none" stroke-width="2"/>
<circle cx="800.6" cy="618.2" r="8" fill="#b7bdc8" opacity="0.36" stroke="none" stroke-width="2"/>
<circle cx="801.2" cy="564.5" r="8" fill="#b7bdc8" opacity="0.36" stroke="none" stroke-width="2"/>
<circle cx="801.2" cy="567.0" r="8" fill="#b7bdc8" opacity="0.36" stroke="none" stroke-width="2"/>
<circle cx="802.0" cy="563.5" r="8" fill="#b7bdc8" opacity="0.36" stroke="none" stroke-width="2"/>
<circle cx="802.0" cy="561.5" r="8" fill="#b7bdc8" opacity="0.36" stroke="none" stroke-width="2"/>
<circle cx="855.0" cy="578.7" r="8" fill="#b7bdc8" opacity="0.36" stroke="none" stroke-width="2"/>
<circle cx="867.2" cy="538.7" r="8" fill="#b7bdc8" opacity="0.36" stroke="none" stroke-width="2"/>
<circle cx="871.4" cy="591.0" r="8" fill="#b7bdc8" opacity="0.36" stroke="none" stroke-width="2"/>
<circle cx="871.7" cy="586.1" r="8" fill="#b7bdc8" opacity="0.36" stroke="none" stroke-width="2"/>
<circle cx="871.7" cy="571.3" r="8" fill="#b7bdc8" opacity="0.36" stroke="none" stroke-width="2"/>
<circle cx="872.0" cy="584.4" r="8" fill="#b7bdc8" opacity="0.36" stroke="none" stroke-width="2"/>
<circle cx="873.1" cy="566.2" r="8" fill="#b7bdc8" opacity="0.36" stroke="none" stroke-width="2"/>
<circle cx="922.7" cy="594.1" r="8" fill="#b7bdc8" opacity="0.36" stroke="none" stroke-width="2"/>
<circle cx="922.8" cy="604.2" r="8" fill="#b7bdc8" opacity="0.36" stroke="none" stroke-width="2"/>
<circle cx="939.4" cy="342.2" r="8" fill="#b7bdc8" opacity="0.36" stroke="none" stroke-width="2"/>
<circle cx="939.4" cy="345.5" r="8" fill="#b7bdc8" opacity="0.36" stroke="none" stroke-width="2"/>
<circle cx="939.5" cy="346.1" r="8" fill="#b7bdc8" opacity="0.36" stroke="none" stroke-width="2"/>
<circle cx="940.8" cy="357.8" r="8" fill="#b7bdc8" opacity="0.36" stroke="none" stroke-width="2"/>
<circle cx="941.5" cy="412.1" r="8" fill="#b7bdc8" opacity="0.36" stroke="none" stroke-width="2"/>
<circle cx="941.5" cy="404.1" r="8" fill="#b7bdc8" opacity="0.36" stroke="none" stroke-width="2"/>
<circle cx="951.8" cy="433.6" r="8" fill="#b7bdc8" opacity="0.36" stroke="none" stroke-width="2"/>
<circle cx="951.8" cy="446.4" r="8" fill="#b7bdc8" opacity="0.36" stroke="none" stroke-width="2"/>
<circle cx="1035.8" cy="515.6" r="8" fill="#b7bdc8" opacity="0.36" stroke="none" stroke-width="2"/>
<circle cx="1035.8" cy="519.6" r="8" fill="#b7bdc8" opacity="0.36" stroke="none" stroke-width="2"/>
<circle cx="1036.5" cy="526.6" r="8" fill="#b7bdc8" opacity="0.36" stroke="none" stroke-width="2"/>
<circle cx="1036.5" cy="557.3" r="8" fill="#b7bdc8" opacity="0.36" stroke="none" stroke-width="2"/>
<circle cx="1038.0" cy="564.9" r="8" fill="#b7bdc8" opacity="0.36" stroke="none" stroke-width="2"/>
<circle cx="1038.2" cy="563.3" r="8" fill="#b7bdc8" opacity="0.36" stroke="none" stroke-width="2"/>
<circle cx="1039.8" cy="533.6" r="8" fill="#b7bdc8" opacity="0.36" stroke="none" stroke-width="2"/>
<circle cx="1079.4" cy="566.6" r="8" fill="#b7bdc8" opacity="0.36" stroke="none" stroke-width="2"/>
<circle cx="1088.3" cy="559.9" r="8" fill="#b7bdc8" opacity="0.36" stroke="none" stroke-width="2"/>
<circle cx="1089.1" cy="555.8" r="8" fill="#b7bdc8" opacity="0.36" stroke="none" stroke-width="2"/>
<circle cx="1089.1" cy="567.6" r="8" fill="#b7bdc8" opacity="0.36" stroke="none" stroke-width="2"/>
<circle cx="1094.3" cy="578.8" r="8" fill="#b7bdc8" opacity="0.36" stroke="none" stroke-width="2"/>
<circle cx="1094.4" cy="580.7" r="8" fill="#b7bdc8" opacity="0.36" stroke="none" stroke-width="2"/>
<circle cx="1098.1" cy="569.5" r="8" fill="#b7bdc8" opacity="0.36" stroke="none" stroke-width="2"/>
<circle cx="1098.1" cy="565.8" r="8" fill="#b7bdc8" opacity="0.36" stroke="none" stroke-width="2"/>
<circle cx="1098.3" cy="567.0" r="8" fill="#b7bdc8" opacity="0.36" stroke="none" stroke-width="2"/>
<circle cx="1098.9" cy="571.5" r="8" fill="#b7bdc8" opacity="0.36" stroke="none" stroke-width="2"/>
<circle cx="1103.8" cy="570.2" r="8" fill="#b7bdc8" opacity="0.36" stroke="none" stroke-width="2"/>
<circle cx="1103.8" cy="565.6" r="8" fill="#b7bdc8" opacity="0.36" stroke="none" stroke-width="2"/>
<circle cx="1103.8" cy="557.9" r="8" fill="#b7bdc8" opacity="0.36" stroke="none" stroke-width="2"/>
<circle cx="1103.8" cy="510.7" r="8" fill="#b7bdc8" opacity="0.36" stroke="none" stroke-width="2"/>
<circle cx="1104.0" cy="553.0" r="8" fill="#b7bdc8" opacity="0.36" stroke="none" stroke-width="2"/>
<circle cx="1125.8" cy="581.5" r="8" fill="#b7bdc8" opacity="0.36" stroke="none" stroke-width="2"/>
<circle cx="1126.5" cy="569.3" r="8" fill="#b7bdc8" opacity="0.36" stroke="none" stroke-width="2"/>
<circle cx="1126.6" cy="567.4" r="8" fill="#b7bdc8" opacity="0.36" stroke="none" stroke-width="2"/>
<circle cx="1129.3" cy="565.8" r="8" fill="#b7bdc8" opacity="0.36" stroke="none" stroke-width="2"/>
<circle cx="1129.5" cy="567.2" r="8" fill="#b7bdc8" opacity="0.36" stroke="none" stroke-width="2"/>
<circle cx="1137.9" cy="567.7" r="8" fill="#b7bdc8" opacity="0.36" stroke="none" stroke-width="2"/>
<circle cx="1137.9" cy="568.8" r="8" fill="#b7bdc8" opacity="0.36" stroke="none" stroke-width="2"/>
<circle cx="1140.4" cy="564.8" r="8" fill="#b7bdc8" opacity="0.36" stroke="none" stroke-width="2"/>
<circle cx="1140.5" cy="563.9" r="8" fill="#b7bdc8" opacity="0.36" stroke="none" stroke-width="2"/>
<circle cx="1141.5" cy="565.7" r="8" fill="#b7bdc8" opacity="0.36" stroke="none" stroke-width="2"/>
<circle cx="1141.5" cy="569.4" r="8" fill="#b7bdc8" opacity="0.36" stroke="none" stroke-width="2"/>
<circle cx="1141.5" cy="568.7" r="8" fill="#b7bdc8" opacity="0.36" stroke="none" stroke-width="2"/>
<circle cx="1143.1" cy="476.4" r="8" fill="#b7bdc8" opacity="0.36" stroke="none" stroke-width="2"/>
<circle cx="1144.6" cy="565.1" r="8" fill="#b7bdc8" opacity="0.36" stroke="none" stroke-width="2"/>
<circle cx="1148.2" cy="566.7" r="8" fill="#b7bdc8" opacity="0.36" stroke="none" stroke-width="2"/>
<circle cx="1148.3" cy="568.0" r="8" fill="#b7bdc8" opacity="0.36" stroke="none" stroke-width="2"/>
<circle cx="1191.5" cy="628.2" r="8" fill="#b7bdc8" opacity="0.36" stroke="none" stroke-width="2"/>
<circle cx="1196.5" cy="619.6" r="8" fill="#b7bdc8" opacity="0.36" stroke="none" stroke-width="2"/>
<circle cx="1201.9" cy="550.5" r="8" fill="#b7bdc8" opacity="0.36" stroke="none" stroke-width="2"/>
<circle cx="1202.0" cy="566.8" r="8" fill="#b7bdc8" opacity="0.36" stroke="none" stroke-width="2"/>
<circle cx="1202.0" cy="565.5" r="8" fill="#b7bdc8" opacity="0.36" stroke="none" stroke-width="2"/>
<circle cx="1202.1" cy="559.2" r="8" fill="#b7bdc8" opacity="0.36" stroke="none" stroke-width="2"/>
<circle cx="1235.1" cy="567.9" r="8" fill="#b7bdc8" opacity="0.36" stroke="none" stroke-width="2"/>
<circle cx="1239.5" cy="558.3" r="8" fill="#b7bdc8" opacity="0.36" stroke="none" stroke-width="2"/>
<circle cx="1239.6" cy="567.9" r="8" fill="#b7bdc8" opacity="0.36" stroke="none" stroke-width="2"/>
<circle cx="1251.1" cy="563.8" r="8" fill="#b7bdc8" opacity="0.36" stroke="none" stroke-width="2"/>
<circle cx="1278.0" cy="628.3" r="8" fill="#b7bdc8" opacity="0.36" stroke="none" stroke-width="2"/>
<circle cx="1278.0" cy="644.7" r="8" fill="#b7bdc8" opacity="0.36" stroke="none" stroke-width="2"/>
<circle cx="1278.0" cy="637.8" r="8" fill="#b7bdc8" opacity="0.36" stroke="none" stroke-width="2"/>
<circle cx="1278.0" cy="646.0" r="8" fill="#b7bdc8" opacity="0.36" stroke="none" stroke-width="2"/>
<circle cx="1279.2" cy="627.3" r="8" fill="#b7bdc8" opacity="0.36" stroke="none" stroke-width="2"/>
<circle cx="1288.4" cy="534.3" r="8" fill="#b7bdc8" opacity="0.36" stroke="none" stroke-width="2"/>
<circle cx="1288.4" cy="533.7" r="8" fill="#b7bdc8" opacity="0.36" stroke="none" stroke-width="2"/>
<circle cx="1288.4" cy="421.2" r="8" fill="#b7bdc8" opacity="0.36" stroke="none" stroke-width="2"/>
<circle cx="1294.8" cy="569.3" r="8" fill="#b7bdc8" opacity="0.36" stroke="none" stroke-width="2"/>
<circle cx="1294.8" cy="566.1" r="8" fill="#b7bdc8" opacity="0.36" stroke="none" stroke-width="2"/>
<circle cx="1296.0" cy="535.1" r="8" fill="#b7bdc8" opacity="0.36" stroke="none" stroke-width="2"/>
<circle cx="1298.3" cy="544.6" r="8" fill="#b7bdc8" opacity="0.36" stroke="none" stroke-width="2"/>
<circle cx="1298.4" cy="561.1" r="8" fill="#b7bdc8" opacity="0.36" stroke="none" stroke-width="2"/>
<circle cx="1300.4" cy="549.6" r="8" fill="#b7bdc8" opacity="0.36" stroke="none" stroke-width="2"/>
<circle cx="1300.4" cy="563.6" r="8" fill="#b7bdc8" opacity="0.36" stroke="none" stroke-width="2"/>
<circle cx="1300.4" cy="564.0" r="8" fill="#b7bdc8" opacity="0.36" stroke="none" stroke-width="2"/>
<circle cx="1300.4" cy="563.4" r="8" fill="#b7bdc8" opacity="0.36" stroke="none" stroke-width="2"/>
<circle cx="1301.2" cy="532.3" r="8" fill="#b7bdc8" opacity="0.36" stroke="none" stroke-width="2"/>
<circle cx="1302.4" cy="550.6" r="8" fill="#b7bdc8" opacity="0.36" stroke="none" stroke-width="2"/>
<circle cx="1302.5" cy="555.0" r="8" fill="#b7bdc8" opacity="0.36" stroke="none" stroke-width="2"/>
<circle cx="1306.9" cy="405.3" r="8" fill="#b7bdc8" opacity="0.36" stroke="none" stroke-width="2"/>
<circle cx="1313.9" cy="569.9" r="8" fill="#b7bdc8" opacity="0.36" stroke="none" stroke-width="2"/>
<circle cx="1313.9" cy="570.1" r="8" fill="#b7bdc8" opacity="0.36" stroke="none" stroke-width="2"/>
<circle cx="1313.9" cy="567.3" r="8" fill="#b7bdc8" opacity="0.36" stroke="none" stroke-width="2"/>
<circle cx="1313.9" cy="569.7" r="8" fill="#b7bdc8" opacity="0.36" stroke="none" stroke-width="2"/>
<circle cx="1316.5" cy="537.8" r="8" fill="#b7bdc8" opacity="0.36" stroke="none" stroke-width="2"/>
<circle cx="1326.2" cy="525.0" r="8" fill="#b7bdc8" opacity="0.36" stroke="none" stroke-width="2"/>
<circle cx="1326.9" cy="568.5" r="8" fill="#b7bdc8" opacity="0.36" stroke="none" stroke-width="2"/>
<circle cx="1326.9" cy="568.9" r="8" fill="#b7bdc8" opacity="0.36" stroke="none" stroke-width="2"/>
<circle cx="1332.8" cy="388.7" r="8" fill="#b7bdc8" opacity="0.36" stroke="none" stroke-width="2"/>
<circle cx="1334.0" cy="569.6" r="8" fill="#b7bdc8" opacity="0.36" stroke="none" stroke-width="2"/>
<circle cx="1334.0" cy="566.8" r="8" fill="#b7bdc8" opacity="0.36" stroke="none" stroke-width="2"/>
<circle cx="1334.0" cy="570.7" r="8" fill="#b7bdc8" opacity="0.36" stroke="none" stroke-width="2"/>
<circle cx="1334.1" cy="568.5" r="8" fill="#b7bdc8" opacity="0.36" stroke="none" stroke-width="2"/>
<circle cx="1334.1" cy="571.2" r="8" fill="#b7bdc8" opacity="0.36" stroke="none" stroke-width="2"/>
<circle cx="1334.1" cy="569.8" r="8" fill="#b7bdc8" opacity="0.36" stroke="none" stroke-width="2"/>
<circle cx="1335.0" cy="533.0" r="8" fill="#b7bdc8" opacity="0.36" stroke="none" stroke-width="2"/>
<circle cx="1335.1" cy="525.9" r="8" fill="#b7bdc8" opacity="0.36" stroke="none" stroke-width="2"/>
<circle cx="1335.1" cy="409.8" r="8" fill="#b7bdc8" opacity="0.36" stroke="none" stroke-width="2"/>
<circle cx="1336.3" cy="614.6" r="8" fill="#b7bdc8" opacity="0.36" stroke="none" stroke-width="2"/>
<circle cx="1340.9" cy="570.4" r="8" fill="#b7bdc8" opacity="0.36" stroke="none" stroke-width="2"/>
<circle cx="1374.0" cy="630.8" r="8" fill="#b7bdc8" opacity="0.36" stroke="none" stroke-width="2"/>
<circle cx="1374.1" cy="624.3" r="8" fill="#b7bdc8" opacity="0.36" stroke="none" stroke-width="2"/>
<circle cx="1374.1" cy="626.1" r="8" fill="#b7bdc8" opacity="0.36" stroke="none" stroke-width="2"/>
<circle cx="1374.1" cy="623.3" r="8" fill="#b7bdc8" opacity="0.36" stroke="none" stroke-width="2"/>
<circle cx="1374.2" cy="616.6" r="8" fill="#b7bdc8" opacity="0.36" stroke="none" stroke-width="2"/>
<circle cx="1374.2" cy="623.7" r="8" fill="#b7bdc8" opacity="0.36" stroke="none" stroke-width="2"/>
<circle cx="1374.2" cy="612.8" r="8" fill="#b7bdc8" opacity="0.36" stroke="none" stroke-width="2"/>
<circle cx="1374.2" cy="615.4" r="8" fill="#b7bdc8" opacity="0.36" stroke="none" stroke-width="2"/>
<circle cx="1374.2" cy="613.3" r="8" fill="#b7bdc8" opacity="0.36" stroke="none" stroke-width="2"/>
<circle cx="1374.2" cy="601.6" r="8" fill="#b7bdc8" opacity="0.36" stroke="none" stroke-width="2"/>
<circle cx="1407.3" cy="569.4" r="8" fill="#b7bdc8" opacity="0.36" stroke="none" stroke-width="2"/>
<circle cx="1408.7" cy="566.1" r="8" fill="#b7bdc8" opacity="0.36" stroke="none" stroke-width="2"/>
<circle cx="1409.1" cy="560.0" r="8" fill="#b7bdc8" opacity="0.36" stroke="none" stroke-width="2"/>
<circle cx="1409.2" cy="530.2" r="8" fill="#b7bdc8" opacity="0.36" stroke="none" stroke-width="2"/>
<circle cx="1424.5" cy="425.2" r="8" fill="#b7bdc8" opacity="0.36" stroke="none" stroke-width="2"/>
<circle cx="1424.5" cy="468.0" r="8" fill="#b7bdc8" opacity="0.36" stroke="none" stroke-width="2"/>
<circle cx="1424.5" cy="457.3" r="8" fill="#b7bdc8" opacity="0.36" stroke="none" stroke-width="2"/>
<circle cx="1427.3" cy="353.6" r="8" fill="#b7bdc8" opacity="0.36" stroke="none" stroke-width="2"/>
<circle cx="1427.3" cy="340.9" r="8" fill="#b7bdc8" opacity="0.36" stroke="none" stroke-width="2"/>
<circle cx="1427.3" cy="309.5" r="8" fill="#b7bdc8" opacity="0.36" stroke="none" stroke-width="2"/>
<circle cx="1427.3" cy="468.0" r="8" fill="#b7bdc8" opacity="0.36" stroke="none" stroke-width="2"/>
<circle cx="1427.3" cy="425.2" r="8" fill="#b7bdc8" opacity="0.36" stroke="none" stroke-width="2"/>
<circle cx="1427.3" cy="457.3" r="8" fill="#b7bdc8" opacity="0.36" stroke="none" stroke-width="2"/>
<circle cx="1468.0" cy="573.8" r="8" fill="#b7bdc8" opacity="0.36" stroke="none" stroke-width="2"/>
<circle cx="1468.9" cy="567.0" r="8" fill="#b7bdc8" opacity="0.36" stroke="none" stroke-width="2"/>
<circle cx="1468.9" cy="566.9" r="8" fill="#b7bdc8" opacity="0.36" stroke="none" stroke-width="2"/>
<circle cx="1469.1" cy="563.3" r="8" fill="#b7bdc8" opacity="0.36" stroke="none" stroke-width="2"/>
<circle cx="1470.0" cy="563.2" r="8" fill="#b7bdc8" opacity="0.36" stroke="none" stroke-width="2"/>
<circle cx="1470.0" cy="564.6" r="8" fill="#b7bdc8" opacity="0.36" stroke="none" stroke-width="2"/>
<circle cx="1470.0" cy="567.4" r="8" fill="#b7bdc8" opacity="0.36" stroke="none" stroke-width="2"/></g>
    <g><circle cx="449.8" cy="566.7" r="9" fill="#26966f" opacity="0.78" stroke="none" stroke-width="2"/>
<circle cx="496.0" cy="548.2" r="9" fill="#26966f" opacity="0.78" stroke="none" stroke-width="2"/>
<circle cx="496.1" cy="545.4" r="9" fill="#26966f" opacity="0.78" stroke="none" stroke-width="2"/>
<circle cx="498.0" cy="559.9" r="9" fill="#26966f" opacity="0.78" stroke="none" stroke-width="2"/>
<circle cx="498.0" cy="546.6" r="9" fill="#26966f" opacity="0.78" stroke="none" stroke-width="2"/>
<circle cx="499.6" cy="596.1" r="9" fill="#26966f" opacity="0.78" stroke="none" stroke-width="2"/>
<circle cx="504.7" cy="565.9" r="9" fill="#26966f" opacity="0.78" stroke="none" stroke-width="2"/>
<circle cx="536.8" cy="566.2" r="9" fill="#26966f" opacity="0.78" stroke="none" stroke-width="2"/>
<circle cx="536.9" cy="563.8" r="9" fill="#26966f" opacity="0.78" stroke="none" stroke-width="2"/>
<circle cx="536.9" cy="572.1" r="9" fill="#26966f" opacity="0.78" stroke="none" stroke-width="2"/>
<circle cx="537.0" cy="580.6" r="9" fill="#26966f" opacity="0.78" stroke="none" stroke-width="2"/>
<circle cx="537.0" cy="574.6" r="9" fill="#26966f" opacity="0.78" stroke="none" stroke-width="2"/>
<circle cx="538.1" cy="563.6" r="9" fill="#26966f" opacity="0.78" stroke="none" stroke-width="2"/>
<circle cx="538.1" cy="562.6" r="9" fill="#26966f" opacity="0.78" stroke="none" stroke-width="2"/>
<circle cx="539.6" cy="569.5" r="9" fill="#26966f" opacity="0.78" stroke="none" stroke-width="2"/>
<circle cx="549.4" cy="556.7" r="9" fill="#26966f" opacity="0.78" stroke="none" stroke-width="2"/>
<circle cx="549.4" cy="559.3" r="9" fill="#26966f" opacity="0.78" stroke="none" stroke-width="2"/>
<circle cx="550.4" cy="544.5" r="9" fill="#26966f" opacity="0.78" stroke="none" stroke-width="2"/>
<circle cx="551.5" cy="568.0" r="9" fill="#26966f" opacity="0.78" stroke="none" stroke-width="2"/>
<circle cx="586.4" cy="566.7" r="9" fill="#26966f" opacity="0.78" stroke="none" stroke-width="2"/>
<circle cx="588.3" cy="566.7" r="9" fill="#26966f" opacity="0.78" stroke="none" stroke-width="2"/>
<circle cx="589.5" cy="566.7" r="9" fill="#26966f" opacity="0.78" stroke="none" stroke-width="2"/>
<circle cx="590.0" cy="566.7" r="9" fill="#26966f" opacity="0.78" stroke="none" stroke-width="2"/>
<circle cx="671.0" cy="564.3" r="9" fill="#26966f" opacity="0.78" stroke="none" stroke-width="2"/>
<circle cx="671.0" cy="556.6" r="9" fill="#26966f" opacity="0.78" stroke="none" stroke-width="2"/>
<circle cx="671.7" cy="556.5" r="9" fill="#26966f" opacity="0.78" stroke="none" stroke-width="2"/>
<circle cx="671.7" cy="290.6" r="9" fill="#26966f" opacity="0.78" stroke="none" stroke-width="2"/>
<circle cx="672.1" cy="561.1" r="9" fill="#26966f" opacity="0.78" stroke="none" stroke-width="2"/>
<circle cx="672.6" cy="556.0" r="9" fill="#26966f" opacity="0.78" stroke="none" stroke-width="2"/>
<circle cx="672.6" cy="559.9" r="9" fill="#26966f" opacity="0.78" stroke="none" stroke-width="2"/>
<circle cx="672.6" cy="558.0" r="9" fill="#26966f" opacity="0.78" stroke="none" stroke-width="2"/>
<circle cx="672.7" cy="559.1" r="9" fill="#26966f" opacity="0.78" stroke="none" stroke-width="2"/>
<circle cx="672.7" cy="558.5" r="9" fill="#26966f" opacity="0.78" stroke="none" stroke-width="2"/>
<circle cx="672.8" cy="552.6" r="9" fill="#26966f" opacity="0.78" stroke="none" stroke-width="2"/>
<circle cx="673.1" cy="551.5" r="9" fill="#26966f" opacity="0.78" stroke="none" stroke-width="2"/>
<circle cx="673.6" cy="550.6" r="9" fill="#26966f" opacity="0.78" stroke="none" stroke-width="2"/>
<circle cx="674.0" cy="517.3" r="9" fill="#26966f" opacity="0.78" stroke="none" stroke-width="2"/>
<circle cx="688.9" cy="566.6" r="9" fill="#26966f" opacity="0.78" stroke="none" stroke-width="2"/>
<circle cx="688.9" cy="567.3" r="9" fill="#26966f" opacity="0.78" stroke="none" stroke-width="2"/>
<circle cx="688.9" cy="561.8" r="9" fill="#26966f" opacity="0.78" stroke="none" stroke-width="2"/>
<circle cx="688.9" cy="560.5" r="9" fill="#26966f" opacity="0.78" stroke="none" stroke-width="2"/>
<circle cx="688.9" cy="571.2" r="9" fill="#26966f" opacity="0.78" stroke="none" stroke-width="2"/>
<circle cx="689.6" cy="564.6" r="9" fill="#26966f" opacity="0.78" stroke="none" stroke-width="2"/>
<circle cx="726.8" cy="570.3" r="9" fill="#26966f" opacity="0.78" stroke="none" stroke-width="2"/>
<circle cx="726.9" cy="570.1" r="9" fill="#26966f" opacity="0.78" stroke="none" stroke-width="2"/>
<circle cx="729.9" cy="573.7" r="9" fill="#26966f" opacity="0.78" stroke="none" stroke-width="2"/>
<circle cx="729.9" cy="572.0" r="9" fill="#26966f" opacity="0.78" stroke="none" stroke-width="2"/>
<circle cx="733.3" cy="567.8" r="9" fill="#26966f" opacity="0.78" stroke="none" stroke-width="2"/>
<circle cx="756.9" cy="581.2" r="9" fill="#26966f" opacity="0.78" stroke="none" stroke-width="2"/>
<circle cx="757.9" cy="563.0" r="9" fill="#26966f" opacity="0.78" stroke="none" stroke-width="2"/>
<circle cx="757.9" cy="563.3" r="9" fill="#26966f" opacity="0.78" stroke="none" stroke-width="2"/>
<circle cx="757.9" cy="562.7" r="9" fill="#26966f" opacity="0.78" stroke="none" stroke-width="2"/>
<circle cx="757.9" cy="547.2" r="9" fill="#26966f" opacity="0.78" stroke="none" stroke-width="2"/>
<circle cx="766.6" cy="527.4" r="9" fill="#26966f" opacity="0.78" stroke="none" stroke-width="2"/>
<circle cx="766.6" cy="548.5" r="9" fill="#26966f" opacity="0.78" stroke="none" stroke-width="2"/>
<circle cx="766.6" cy="563.1" r="9" fill="#26966f" opacity="0.78" stroke="none" stroke-width="2"/>
<circle cx="767.4" cy="564.7" r="9" fill="#26966f" opacity="0.78" stroke="none" stroke-width="2"/>
<circle cx="767.4" cy="567.8" r="9" fill="#26966f" opacity="0.78" stroke="none" stroke-width="2"/>
<circle cx="770.1" cy="551.0" r="9" fill="#26966f" opacity="0.78" stroke="none" stroke-width="2"/>
<circle cx="770.4" cy="532.9" r="9" fill="#26966f" opacity="0.78" stroke="none" stroke-width="2"/>
<circle cx="775.7" cy="575.1" r="9" fill="#26966f" opacity="0.78" stroke="none" stroke-width="2"/>
<circle cx="775.8" cy="575.1" r="9" fill="#26966f" opacity="0.78" stroke="none" stroke-width="2"/>
<circle cx="775.8" cy="569.4" r="9" fill="#26966f" opacity="0.78" stroke="none" stroke-width="2"/>
<circle cx="776.1" cy="574.0" r="9" fill="#26966f" opacity="0.78" stroke="none" stroke-width="2"/>
<circle cx="779.8" cy="540.8" r="9" fill="#26966f" opacity="0.78" stroke="none" stroke-width="2"/>
<circle cx="781.9" cy="573.6" r="9" fill="#26966f" opacity="0.78" stroke="none" stroke-width="2"/>
<circle cx="781.9" cy="572.2" r="9" fill="#26966f" opacity="0.78" stroke="none" stroke-width="2"/>
<circle cx="800.6" cy="618.2" r="9" fill="#26966f" opacity="0.78" stroke="none" stroke-width="2"/>
<circle cx="801.2" cy="564.5" r="9" fill="#26966f" opacity="0.78" stroke="none" stroke-width="2"/>
<circle cx="801.2" cy="567.0" r="9" fill="#26966f" opacity="0.78" stroke="none" stroke-width="2"/>
<circle cx="802.0" cy="563.5" r="9" fill="#26966f" opacity="0.78" stroke="none" stroke-width="2"/>
<circle cx="802.0" cy="561.5" r="9" fill="#26966f" opacity="0.78" stroke="none" stroke-width="2"/>
<circle cx="855.0" cy="578.7" r="9" fill="#26966f" opacity="0.78" stroke="none" stroke-width="2"/>
<circle cx="867.2" cy="538.7" r="9" fill="#26966f" opacity="0.78" stroke="none" stroke-width="2"/>
<circle cx="871.4" cy="591.0" r="9" fill="#26966f" opacity="0.78" stroke="none" stroke-width="2"/>
<circle cx="871.7" cy="586.1" r="9" fill="#26966f" opacity="0.78" stroke="none" stroke-width="2"/>
<circle cx="871.7" cy="571.3" r="9" fill="#26966f" opacity="0.78" stroke="none" stroke-width="2"/>
<circle cx="872.0" cy="584.4" r="9" fill="#26966f" opacity="0.78" stroke="none" stroke-width="2"/>
<circle cx="873.1" cy="566.2" r="9" fill="#26966f" opacity="0.78" stroke="none" stroke-width="2"/>
<circle cx="922.7" cy="594.1" r="9" fill="#26966f" opacity="0.78" stroke="none" stroke-width="2"/>
<circle cx="922.8" cy="604.2" r="9" fill="#26966f" opacity="0.78" stroke="none" stroke-width="2"/>
<circle cx="939.4" cy="342.2" r="9" fill="#26966f" opacity="0.78" stroke="none" stroke-width="2"/>
<circle cx="939.4" cy="345.5" r="9" fill="#26966f" opacity="0.78" stroke="none" stroke-width="2"/>
<circle cx="939.5" cy="346.1" r="9" fill="#26966f" opacity="0.78" stroke="none" stroke-width="2"/>
<circle cx="940.8" cy="357.8" r="9" fill="#26966f" opacity="0.78" stroke="none" stroke-width="2"/>
<circle cx="941.5" cy="412.1" r="9" fill="#26966f" opacity="0.78" stroke="none" stroke-width="2"/>
<circle cx="941.5" cy="404.1" r="9" fill="#26966f" opacity="0.78" stroke="none" stroke-width="2"/>
<circle cx="951.8" cy="433.6" r="9" fill="#26966f" opacity="0.78" stroke="none" stroke-width="2"/>
<circle cx="951.8" cy="446.4" r="9" fill="#26966f" opacity="0.78" stroke="none" stroke-width="2"/>
<circle cx="1035.8" cy="515.6" r="9" fill="#26966f" opacity="0.78" stroke="none" stroke-width="2"/>
<circle cx="1035.8" cy="519.6" r="9" fill="#26966f" opacity="0.78" stroke="none" stroke-width="2"/>
<circle cx="1036.5" cy="526.6" r="9" fill="#26966f" opacity="0.78" stroke="none" stroke-width="2"/>
<circle cx="1036.5" cy="557.3" r="9" fill="#26966f" opacity="0.78" stroke="none" stroke-width="2"/>
<circle cx="1038.0" cy="564.9" r="9" fill="#26966f" opacity="0.78" stroke="none" stroke-width="2"/>
<circle cx="1038.2" cy="563.3" r="9" fill="#26966f" opacity="0.78" stroke="none" stroke-width="2"/>
<circle cx="1039.8" cy="533.6" r="9" fill="#26966f" opacity="0.78" stroke="none" stroke-width="2"/>
<circle cx="1079.4" cy="566.6" r="9" fill="#26966f" opacity="0.78" stroke="none" stroke-width="2"/>
<circle cx="1088.3" cy="559.9" r="9" fill="#26966f" opacity="0.78" stroke="none" stroke-width="2"/>
<circle cx="1089.1" cy="555.8" r="9" fill="#26966f" opacity="0.78" stroke="none" stroke-width="2"/>
<circle cx="1089.1" cy="567.6" r="9" fill="#26966f" opacity="0.78" stroke="none" stroke-width="2"/>
<circle cx="1094.3" cy="578.8" r="9" fill="#26966f" opacity="0.78" stroke="none" stroke-width="2"/>
<circle cx="1094.4" cy="580.7" r="9" fill="#26966f" opacity="0.78" stroke="none" stroke-width="2"/>
<circle cx="1098.1" cy="569.5" r="9" fill="#26966f" opacity="0.78" stroke="none" stroke-width="2"/>
<circle cx="1098.1" cy="565.8" r="9" fill="#26966f" opacity="0.78" stroke="none" stroke-width="2"/>
<circle cx="1098.3" cy="567.0" r="9" fill="#26966f" opacity="0.78" stroke="none" stroke-width="2"/>
<circle cx="1098.9" cy="571.5" r="9" fill="#26966f" opacity="0.78" stroke="none" stroke-width="2"/>
<circle cx="1103.8" cy="570.2" r="9" fill="#26966f" opacity="0.78" stroke="none" stroke-width="2"/>
<circle cx="1103.8" cy="565.6" r="9" fill="#26966f" opacity="0.78" stroke="none" stroke-width="2"/>
<circle cx="1103.8" cy="557.9" r="9" fill="#26966f" opacity="0.78" stroke="none" stroke-width="2"/>
<circle cx="1103.8" cy="510.7" r="9" fill="#26966f" opacity="0.78" stroke="none" stroke-width="2"/>
<circle cx="1104.0" cy="553.0" r="9" fill="#26966f" opacity="0.78" stroke="none" stroke-width="2"/>
<circle cx="1125.8" cy="581.5" r="9" fill="#26966f" opacity="0.78" stroke="none" stroke-width="2"/>
<circle cx="1126.5" cy="569.3" r="9" fill="#26966f" opacity="0.78" stroke="none" stroke-width="2"/>
<circle cx="1126.6" cy="567.4" r="9" fill="#26966f" opacity="0.78" stroke="none" stroke-width="2"/>
<circle cx="1129.3" cy="565.8" r="9" fill="#26966f" opacity="0.78" stroke="none" stroke-width="2"/>
<circle cx="1129.5" cy="567.2" r="9" fill="#26966f" opacity="0.78" stroke="none" stroke-width="2"/>
<circle cx="1137.9" cy="567.7" r="9" fill="#26966f" opacity="0.78" stroke="none" stroke-width="2"/>
<circle cx="1137.9" cy="568.8" r="9" fill="#26966f" opacity="0.78" stroke="none" stroke-width="2"/>
<circle cx="1140.4" cy="564.8" r="9" fill="#26966f" opacity="0.78" stroke="none" stroke-width="2"/>
<circle cx="1140.5" cy="563.9" r="9" fill="#26966f" opacity="0.78" stroke="none" stroke-width="2"/>
<circle cx="1141.5" cy="565.7" r="9" fill="#26966f" opacity="0.78" stroke="none" stroke-width="2"/>
<circle cx="1141.5" cy="569.4" r="9" fill="#26966f" opacity="0.78" stroke="none" stroke-width="2"/>
<circle cx="1141.5" cy="568.7" r="9" fill="#26966f" opacity="0.78" stroke="none" stroke-width="2"/>
<circle cx="1143.1" cy="476.4" r="9" fill="#26966f" opacity="0.78" stroke="none" stroke-width="2"/>
<circle cx="1144.6" cy="565.1" r="9" fill="#26966f" opacity="0.78" stroke="none" stroke-width="2"/>
<circle cx="1148.2" cy="566.7" r="9" fill="#26966f" opacity="0.78" stroke="none" stroke-width="2"/>
<circle cx="1148.3" cy="568.0" r="9" fill="#26966f" opacity="0.78" stroke="none" stroke-width="2"/>
<circle cx="1191.5" cy="628.2" r="9" fill="#26966f" opacity="0.78" stroke="none" stroke-width="2"/>
<circle cx="1196.5" cy="619.6" r="9" fill="#26966f" opacity="0.78" stroke="none" stroke-width="2"/>
<circle cx="1201.9" cy="550.5" r="9" fill="#26966f" opacity="0.78" stroke="none" stroke-width="2"/>
<circle cx="1202.0" cy="566.8" r="9" fill="#26966f" opacity="0.78" stroke="none" stroke-width="2"/>
<circle cx="1202.0" cy="565.5" r="9" fill="#26966f" opacity="0.78" stroke="none" stroke-width="2"/>
<circle cx="1202.1" cy="559.2" r="9" fill="#26966f" opacity="0.78" stroke="none" stroke-width="2"/>
<circle cx="1235.1" cy="567.9" r="9" fill="#26966f" opacity="0.78" stroke="none" stroke-width="2"/>
<circle cx="1239.5" cy="558.3" r="9" fill="#26966f" opacity="0.78" stroke="none" stroke-width="2"/>
<circle cx="1239.6" cy="567.9" r="9" fill="#26966f" opacity="0.78" stroke="none" stroke-width="2"/>
<circle cx="1251.1" cy="563.8" r="9" fill="#26966f" opacity="0.78" stroke="none" stroke-width="2"/>
<circle cx="1278.0" cy="628.3" r="9" fill="#26966f" opacity="0.78" stroke="none" stroke-width="2"/>
<circle cx="1278.0" cy="644.7" r="9" fill="#26966f" opacity="0.78" stroke="none" stroke-width="2"/>
<circle cx="1278.0" cy="637.8" r="9" fill="#26966f" opacity="0.78" stroke="none" stroke-width="2"/>
<circle cx="1278.0" cy="646.0" r="9" fill="#26966f" opacity="0.78" stroke="none" stroke-width="2"/>
<circle cx="1279.2" cy="627.3" r="9" fill="#26966f" opacity="0.78" stroke="none" stroke-width="2"/>
<circle cx="1294.8" cy="569.3" r="9" fill="#26966f" opacity="0.78" stroke="none" stroke-width="2"/>
<circle cx="1294.8" cy="566.1" r="9" fill="#26966f" opacity="0.78" stroke="none" stroke-width="2"/>
<circle cx="1298.3" cy="544.6" r="9" fill="#26966f" opacity="0.78" stroke="none" stroke-width="2"/>
<circle cx="1298.4" cy="561.1" r="9" fill="#26966f" opacity="0.78" stroke="none" stroke-width="2"/>
<circle cx="1300.4" cy="549.6" r="9" fill="#26966f" opacity="0.78" stroke="none" stroke-width="2"/>
<circle cx="1300.4" cy="563.6" r="9" fill="#26966f" opacity="0.78" stroke="none" stroke-width="2"/>
<circle cx="1300.4" cy="564.0" r="9" fill="#26966f" opacity="0.78" stroke="none" stroke-width="2"/>
<circle cx="1300.4" cy="563.4" r="9" fill="#26966f" opacity="0.78" stroke="none" stroke-width="2"/>
<circle cx="1302.4" cy="550.6" r="9" fill="#26966f" opacity="0.78" stroke="none" stroke-width="2"/>
<circle cx="1302.5" cy="555.0" r="9" fill="#26966f" opacity="0.78" stroke="none" stroke-width="2"/>
<circle cx="1313.9" cy="569.9" r="9" fill="#26966f" opacity="0.78" stroke="none" stroke-width="2"/>
<circle cx="1313.9" cy="570.1" r="9" fill="#26966f" opacity="0.78" stroke="none" stroke-width="2"/>
<circle cx="1313.9" cy="567.3" r="9" fill="#26966f" opacity="0.78" stroke="none" stroke-width="2"/>
<circle cx="1313.9" cy="569.7" r="9" fill="#26966f" opacity="0.78" stroke="none" stroke-width="2"/>
<circle cx="1326.9" cy="568.5" r="9" fill="#26966f" opacity="0.78" stroke="none" stroke-width="2"/>
<circle cx="1326.9" cy="568.9" r="9" fill="#26966f" opacity="0.78" stroke="none" stroke-width="2"/>
<circle cx="1334.0" cy="569.6" r="9" fill="#26966f" opacity="0.78" stroke="none" stroke-width="2"/>
<circle cx="1334.0" cy="566.8" r="9" fill="#26966f" opacity="0.78" stroke="none" stroke-width="2"/>
<circle cx="1334.0" cy="570.7" r="9" fill="#26966f" opacity="0.78" stroke="none" stroke-width="2"/>
<circle cx="1334.1" cy="568.5" r="9" fill="#26966f" opacity="0.78" stroke="none" stroke-width="2"/>
<circle cx="1334.1" cy="571.2" r="9" fill="#26966f" opacity="0.78" stroke="none" stroke-width="2"/>
<circle cx="1334.1" cy="569.8" r="9" fill="#26966f" opacity="0.78" stroke="none" stroke-width="2"/>
<circle cx="1336.3" cy="614.6" r="9" fill="#26966f" opacity="0.78" stroke="none" stroke-width="2"/>
<circle cx="1340.9" cy="570.4" r="9" fill="#26966f" opacity="0.78" stroke="none" stroke-width="2"/>
<circle cx="1374.0" cy="630.8" r="9" fill="#26966f" opacity="0.78" stroke="none" stroke-width="2"/>
<circle cx="1374.1" cy="624.3" r="9" fill="#26966f" opacity="0.78" stroke="none" stroke-width="2"/>
<circle cx="1374.1" cy="626.1" r="9" fill="#26966f" opacity="0.78" stroke="none" stroke-width="2"/>
<circle cx="1374.1" cy="623.3" r="9" fill="#26966f" opacity="0.78" stroke="none" stroke-width="2"/>
<circle cx="1374.2" cy="616.6" r="9" fill="#26966f" opacity="0.78" stroke="none" stroke-width="2"/>
<circle cx="1374.2" cy="623.7" r="9" fill="#26966f" opacity="0.78" stroke="none" stroke-width="2"/>
<circle cx="1374.2" cy="612.8" r="9" fill="#26966f" opacity="0.78" stroke="none" stroke-width="2"/>
<circle cx="1374.2" cy="615.4" r="9" fill="#26966f" opacity="0.78" stroke="none" stroke-width="2"/>
<circle cx="1374.2" cy="613.3" r="9" fill="#26966f" opacity="0.78" stroke="none" stroke-width="2"/>
<circle cx="1374.2" cy="601.6" r="9" fill="#26966f" opacity="0.78" stroke="none" stroke-width="2"/>
<circle cx="1407.3" cy="569.4" r="9" fill="#26966f" opacity="0.78" stroke="none" stroke-width="2"/>
<circle cx="1408.7" cy="566.1" r="9" fill="#26966f" opacity="0.78" stroke="none" stroke-width="2"/>
<circle cx="1409.1" cy="560.0" r="9" fill="#26966f" opacity="0.78" stroke="none" stroke-width="2"/>
<circle cx="1409.2" cy="530.2" r="9" fill="#26966f" opacity="0.78" stroke="none" stroke-width="2"/>
<circle cx="1468.0" cy="573.8" r="9" fill="#26966f" opacity="0.78" stroke="none" stroke-width="2"/>
<circle cx="1468.9" cy="567.0" r="9" fill="#26966f" opacity="0.78" stroke="none" stroke-width="2"/>
<circle cx="1468.9" cy="566.9" r="9" fill="#26966f" opacity="0.78" stroke="none" stroke-width="2"/>
<circle cx="1469.1" cy="563.3" r="9" fill="#26966f" opacity="0.78" stroke="none" stroke-width="2"/>
<circle cx="1470.0" cy="563.2" r="9" fill="#26966f" opacity="0.78" stroke="none" stroke-width="2"/>
<circle cx="1470.0" cy="564.6" r="9" fill="#26966f" opacity="0.78" stroke="none" stroke-width="2"/>
<circle cx="1470.0" cy="567.4" r="9" fill="#26966f" opacity="0.78" stroke="none" stroke-width="2"/></g>
    <path d="M 449.8 566.7 L 499.6 596.1 L 800.6 618.2 L 1191.5 628.2 L 1278.0 628.3 L 1278.0 644.7 L 1278.0 646.0" fill="none" stroke="#f97316" stroke-width="7" stroke-linecap="round" stroke-linejoin="round"/>
    <g><circle cx="449.8" cy="566.7" r="8" fill="#f97316" opacity="1" stroke="#fbfaf7" stroke-width="2"/>
<circle cx="499.6" cy="596.1" r="8" fill="#f97316" opacity="1" stroke="#fbfaf7" stroke-width="2"/>
<circle cx="800.6" cy="618.2" r="8" fill="#f97316" opacity="1" stroke="#fbfaf7" stroke-width="2"/>
<circle cx="1191.5" cy="628.2" r="8" fill="#f97316" opacity="1" stroke="#fbfaf7" stroke-width="2"/>
<circle cx="1278.0" cy="628.3" r="8" fill="#f97316" opacity="1" stroke="#fbfaf7" stroke-width="2"/>
<circle cx="1278.0" cy="644.7" r="8" fill="#f97316" opacity="1" stroke="#fbfaf7" stroke-width="2"/>
<circle cx="1278.0" cy="646.0" r="8" fill="#f97316" opacity="1" stroke="#fbfaf7" stroke-width="2"/></g>
    <circle cx="1278.0" cy="646.0" r="15" fill="#f97316" stroke="#1f2933" stroke-width="3"/>
    <line x1="1278.0" y1="646.0" x2="1213.0" y2="580.0" stroke="#1f2933" stroke-width="2.5"/>
    <rect x="713.0" y="494.0" width="500" height="102" rx="12" fill="#ffffff" stroke="#d7dce3" stroke-width="2"/>
    <text x="733.0" y="534.0" fill="#1f2933" font-size="27" font-weight="760">Best 1.7e18: 1.0151 BPB</text>
    <text x="733.0" y="570.0" fill="#526071" font-size="22">may-arch-lr0.8x, May 1</text>
    <g transform="translate(118, 845)">
      <circle cx="0" cy="0" r="8" fill="#b7bdc8" opacity="0.55"/><text x="18" y="8" fill="#475569" font-size="23">all 1e18-2e18 (217)</text>
      <circle cx="287" cy="0" r="8" fill="#26966f" opacity="0.85"/><text x="305" y="8" fill="#475569" font-size="23">1.7e18 focus (187)</text>
      <line x1="590" x2="650" y1="0" y2="0" stroke="#f97316" stroke-width="7" stroke-linecap="round"/><text x="664" y="8" fill="#475569" font-size="23">cumulative best in focus band</text>
    </g>
  </g>
</svg>
